<?xml version="1.0" encoding="iso-8859-1"?>
<!-- Generator: Adobe Illustrator 19.0.0, SVG Export Plug-In . SVG Version: 6.00 Build 0)  -->
<svg version="1.1" id="Capa_1" xmlns="http://www.w3.org/2000/svg" xmlns:xlink="http://www.w3.org/1999/xlink" x="0px" y="0px"
	 viewBox="0 0 512.001 512.001" style="enable-background:new 0 0 512.001 512.001;" xml:space="preserve">
<path style="fill:#152C49;" d="M509.926,483.702c-1.951,5.936-5.286,11.506-10.006,16.226C491.876,507.972,481.314,512,470.762,512
	c-10.562,0-21.113-4.028-29.169-12.072L328.108,386.431l58.327-58.327L499.92,441.601
	C511.311,452.991,514.646,469.385,509.926,483.702z"/>
<path style="fill:#1F3B63;" d="M509.926,483.702c-4.195,1.384-8.569,2.077-12.943,2.077c-10.562,0-21.113-4.028-29.169-12.072
	L354.329,360.21l32.105-32.105L499.92,441.601C511.311,452.991,514.646,469.385,509.926,483.702z"/>
<circle style="fill:#E1E8EF;" cx="210.945" cy="210.946" r="210.945"/>
<circle style="fill:#25C2CE;" cx="210.945" cy="210.946" r="163.107"/>
<path style="fill:#19A2A5;" d="M139.666,326.287c-63.698-63.698-63.698-166.972,0-230.67c26.233-26.233,59.179-41.652,93.309-46.277
	c-48.741-6.606-99.896,8.812-137.361,46.277c-63.698,63.698-63.698,166.972,0,230.67c37.465,37.465,88.62,52.883,137.361,46.277
	C198.847,367.938,165.9,352.52,139.666,326.287z"/>
<g>
	<path style="fill:#D1D7DB;" d="M210.725,381.744c-43.819,0.003-87.624-16.674-120.985-50.033
		c-66.71-66.711-66.71-175.258,0-241.969c66.712-66.711,175.257-66.711,241.969,0c32.316,32.316,50.113,75.282,50.113,120.984
		c0,45.703-17.798,88.669-50.113,120.985C298.357,365.062,254.533,381.74,210.725,381.744z M210.725,55.435
		c-39.786,0-79.571,15.144-109.859,45.432c-60.576,60.576-60.576,159.142,0,219.72c60.575,60.576,159.142,60.576,219.718,0
		c29.346-29.345,45.507-68.36,45.507-109.86c0-41.499-16.161-80.515-45.507-109.86C290.296,70.579,250.51,55.435,210.725,55.435z"/>
	<path style="fill:#D1D7DB;" d="M337.128,210.728c-26.022,42.52-72.895,70.902-126.408,70.902c-23.484,0-45.698-5.465-65.427-15.208
		c-25.214-12.439-46.37-31.843-60.97-55.694c14.6-23.851,35.755-43.255,60.97-55.694c19.729-9.744,41.944-15.208,65.427-15.208
		C264.233,139.825,311.106,168.207,337.128,210.728z"/>
</g>
<path style="fill:#E1E8EF;" d="M337.128,210.728c-26.022,42.52-72.895,70.902-126.408,70.902c-23.484,0-45.698-5.465-65.427-15.208
	c-6.178-17.411-9.534-36.164-9.534-55.694c0-19.53,3.356-38.283,9.534-55.694c19.729-9.744,41.944-15.208,65.427-15.208
	C264.233,139.825,311.106,168.207,337.128,210.728z"/>
<circle style="fill:#1F3B63;" cx="210.725" cy="210.726" r="44.597"/>
<g>
</g>
<g>
</g>
<g>
</g>
<g>
</g>
<g>
</g>
<g>
</g>
<g>
</g>
<g>
</g>
<g>
</g>
<g>
</g>
<g>
</g>
<g>
</g>
<g>
</g>
<g>
</g>
<g>
</g>
</svg>
