<?xml version="1.0" encoding="utf-8"?>
<!-- Generator: Adobe Illustrator 22.0.1, SVG Export Plug-In . SVG Version: 6.00 Build 0)  -->
<svg version="1.1" id="圖層_1" xmlns="http://www.w3.org/2000/svg" xmlns:xlink="http://www.w3.org/1999/xlink" x="0px" y="0px"
	 viewBox="0 0 240 240" style="enable-background:new 0 0 240 240;" xml:space="preserve">
<style type="text/css">
	.st0{opacity:0.75;fill:#FFFFFF;}
	.st1{fill:#FFFFFF;}
</style>
<g>
	<ellipse class="st0" cx="124" cy="184" rx="78.4" ry="6.3"/>
	<path class="st1" d="M196.8,95.4c-4.6-9.2-3.9-34-61.5-34.7c0,0,3.3-2.6,4.6-8.5c0,0-13.9-7.6-31.2,10.3c1.6-3.3,3.7-9,2.4-12.9
		c0,0-14.8,0.2-24.3,22.5c-0.4,0.3-0.8,0.7-1.2,1C76.4,81.7,64.6,96.7,30,90.8c0,0-0.7-0.7-1.3,2S25.4,102,28,119
		c2.6,17,14.4,19.6,14.4,19.6s7.8,12.4,13.7,17c5.9,4.6,16.4,7.8,19,13.7c2.6,5.9,3.9,12.4,3.9,12.4s0,2.6,4.6,2.6
		c4.6,0,10.5-2.6,9.2-13.1c0,0,41.2,9.2,63.4-0.7c0,0,0.7,11.8,9.2,11.8s9.2-12.4,11.1-20.9c0,0,30.7-18.3,36.6-54.3
		C213.1,107.2,201.4,104.6,196.8,95.4z M55.2,141.9c0,0,10.1,0,21.1-5.1c-1.2-2.1-2.7-9.5-3.4-13.3c-0.2-0.9,0.9-1.5,1.5-0.9
		l10.3,8.2c0.2,0.2,0.3,0.4,0.4,0.7c0.3-0.2,0.6-0.4,0.9-0.7C86,130.7,80.8,142.5,55.2,141.9z M90.4,103.1c-3,0-5.4-3.1-5.4-7
		c0-3.9,2.4-7,5.4-7c3,0,5.4,3.1,5.4,7C95.9,100,93.4,103.1,90.4,103.1z M141,73.5c1.7-0.2,7-0.4,11.8-0.4c2.4,0,4.7,0.1,6.4,0.2
		c1.7,0.1,2.8,0.2,2.8,0.2s1.1,0.1,2.8,0.3c1.7,0.2,4,0.5,6.4,0.9c2.4,0.4,4.9,1,7,1.7c0.5,0.2,1,0.3,1.5,0.5
		c0.5,0.2,0.9,0.3,1.3,0.5c0.8,0.3,1.4,0.5,1.8,0.7c0.4,0.2,0.7,0.3,1.1,0.5c0.3,0.2,0.6,0.4,0.9,0.6c0.6,0.4,1.1,0.8,1.5,1.3
		c0.4,0.5,0.8,1,1.2,1.6c0.4,0.6,0.7,1.2,1,1.9c-0.8,0-1.5,0-2.1-0.1c-0.6,0-1.3,0-1.9-0.1c-0.6-0.1-1.2-0.2-1.8-0.3
		c-0.3-0.1-0.6-0.2-0.9-0.3c-0.3-0.1-0.7-0.2-1-0.4c-0.4-0.1-0.9-0.4-1.7-0.6c-0.4-0.1-0.7-0.3-1.2-0.4c-0.4-0.1-0.9-0.3-1.4-0.4
		c-1.9-0.6-4.2-1.1-6.5-1.6c-2.2-0.4-4.4-0.7-6-0.9c-1.6-0.2-2.7-0.3-2.7-0.3s-1-0.1-2.7-0.2c-1.6-0.1-3.8-0.2-6.1-0.2
		c-4.6-0.1-9.7,0.2-11.4,0.3c-3.1,0.2-4.9-0.5-7.7-1.8C136.1,74.8,137.8,73.8,141,73.5z M186.8,122.5c-0.7,0-1.5,0.1-2.2,0.1
		c-0.7,0-1.4,0.1-2.2,0.1s-1.5,0-2.2,0c-0.8,0-1.5,0-2.3,0c-1.6,0-3.3-0.2-5.3-0.3c-1-0.1-2.3-0.1-4.2-0.3c-1.9-0.1-4.3-0.2-7.3-0.2
		c-1.1,0-2.8,0-4.1-0.1c-1.3,0-2.4,0-2.4,0s-1.2,0-2.7,0c-1.5,0-3.3,0.1-4.3,0.1c-2.2,0-3.9,0.1-5.1,0.1c-1.3,0-2.1,0.1-2.8,0.1
		c-3.9,0.2-6.9,0.1-9.9-0.1c-2.9-0.2-5.7-0.6-9-1.1c6.4-2.3,10.8-3.5,18.7-3.9c0.7,0,1.5-0.1,2.8-0.1c1.3,0,2.9-0.1,5.2-0.2
		c1.1,0,2.8-0.1,4.4-0.1c1.5,0,2.8,0,2.8,0s1.1,0,2.4,0c1.3,0,3,0,4.1,0.1c3,0,5.5,0.2,7.4,0.3c1.9,0.1,3.4,0.2,4.3,0.3
		c2,0.1,3.7,0.4,5.4,0.6c0.8,0.1,1.6,0.3,2.3,0.4c0.8,0.2,1.5,0.4,2.2,0.6c0.7,0.2,1.4,0.4,2.1,0.6c0.7,0.2,1.4,0.5,2.1,0.8
		c1.4,0.6,2.8,1.2,4.4,1.9C189.8,122.3,188.3,122.4,186.8,122.5z M188.7,102.9c-2.7-0.6-5.6-1.2-9.3-1.9c-0.5-0.1-1-0.2-1.7-0.3
		c-0.7-0.1-1.5-0.2-2.4-0.3c-1.8-0.2-4.2-0.5-7.1-0.7c-0.7,0-1.5-0.1-2.4-0.1c-0.9,0-1.7-0.1-2.5-0.1c-1.6,0-2.8,0-2.8,0s-0.4,0-1,0
		c-0.6,0-1.4,0-2.3,0c-1.8,0.1-3.9,0.1-5.2,0.2c-4.4,0.2-6.6,0.5-7.9,0.6c-3.9,0.3-6.9,0.5-9.8,0.5c-2.9,0-5.7-0.2-9.1-0.4
		c3.1-1.4,5.7-2.4,8.6-3.3c2.8-0.8,5.9-1.4,9.9-1.8c1.3-0.1,3.5-0.4,8.1-0.6c1.3-0.1,3.5-0.2,5.4-0.2c0.9,0,1.8,0,2.4,0
		c0.6,0,1,0,1,0s1.3,0,2.9,0c0.8,0,1.7,0,2.6,0.1c0.9,0,1.8,0.1,2.5,0.1c3.1,0.2,5.5,0.4,7.5,0.7c1,0.1,1.8,0.3,2.6,0.4
		c0.7,0.1,1.3,0.2,1.8,0.3c4,0.8,7.1,1.9,9.7,3.4c2.7,1.5,5,3.4,7,6.1C194,104.1,191.4,103.5,188.7,102.9z"/>
	<ellipse transform="matrix(7.269986e-03 -1 1 7.269986e-03 -8.613 189.0966)" class="st1" cx="90.9" cy="98.9" rx="4.2" ry="2.1"/>
</g>
</svg>
