<?xml version="1.0" encoding="iso-8859-1"?>
<!-- Generator: Adobe Illustrator 19.0.0, SVG Export Plug-In . SVG Version: 6.00 Build 0)  -->
<svg version="1.1" id="Capa_1" xmlns="http://www.w3.org/2000/svg" xmlns:xlink="http://www.w3.org/1999/xlink" x="0px" y="0px"
	 viewBox="0 0 512 512" style="enable-background:new 0 0 512 512;" xml:space="preserve">
<path style="fill:#E1E8EF;" d="M404.009,512H107.992c-13.903,0-25.175-11.271-25.175-25.175V25.175
	C82.817,11.271,94.088,0,107.992,0h296.016c13.903,0,25.175,11.271,25.175,25.175v461.651C429.184,500.729,417.913,512,404.009,512z
	"/>
<rect x="152.148" y="43.325" style="fill:#1F3B63;" width="207.705" height="314.243"/>
<polyline style="fill:#25C2CE;" points="276.771,362.796 359.855,362.796 359.855,316.029 276.771,274.487 235.23,274.487 
	235.23,316.029 193.688,316.029 193.688,362.796 235.23,362.796 "/>
<polygon style="fill:#ED3B72;" points="193.688,149.861 146.922,149.861 146.922,191.403 146.922,232.945 146.922,274.487 
	193.688,274.487 193.688,232.945 193.688,191.403 235.23,191.403 235.23,149.861 "/>
<polygon style="fill:#F4E662;" points="318.313,316.029 318.313,362.796 365.079,362.796 365.079,316.029 365.079,274.487 
	318.313,274.487 318.313,232.945 276.771,232.945 276.771,274.487 276.771,316.029 "/>
<g>
	<circle style="fill:#1F3B63;" cx="179.201" cy="437.488" r="32.129"/>
	<circle style="fill:#1F3B63;" cx="315.56" cy="420.247" r="16.456"/>
	<circle style="fill:#1F3B63;" cx="346.112" cy="456.725" r="16.456"/>
</g>
<path style="fill:#D1D7DB;" d="M359.855,43.325v314.247H152.146V43.325H359.855 M359.855,27.651H152.146
	c-8.656,0-15.673,7.018-15.673,15.673v314.247c0,8.656,7.018,15.673,15.673,15.673h207.709c8.656,0,15.673-7.018,15.673-15.673
	V43.325C375.528,34.668,368.511,27.651,359.855,27.651L359.855,27.651z"/>
<g>
</g>
<g>
</g>
<g>
</g>
<g>
</g>
<g>
</g>
<g>
</g>
<g>
</g>
<g>
</g>
<g>
</g>
<g>
</g>
<g>
</g>
<g>
</g>
<g>
</g>
<g>
</g>
<g>
</g>
</svg>
