<?xml version="1.0" encoding="iso-8859-1"?>
<!-- Generator: Adobe Illustrator 19.0.0, SVG Export Plug-In . SVG Version: 6.00 Build 0)  -->
<svg version="1.1" id="Capa_1" xmlns="http://www.w3.org/2000/svg" xmlns:xlink="http://www.w3.org/1999/xlink" x="0px" y="0px"
	 viewBox="0 0 512 512" style="enable-background:new 0 0 512 512;" xml:space="preserve">
<path style="fill:#E1E8EF;" d="M500.362,452.964H11.638C5.211,452.964,0,447.753,0,441.326V70.674
	c0-6.427,5.211-11.638,11.638-11.638h488.724c6.427,0,11.638,5.211,11.638,11.638v370.652
	C512,447.753,506.789,452.964,500.362,452.964z"/>
<path style="fill:#F4E662;" d="M512,125.91H0V70.674c0-6.427,5.211-11.638,11.638-11.638h488.724
	c6.427,0,11.638,5.211,11.638,11.638V125.91z"/>
<g>
	<path style="fill:#FFFFFF;" d="M477.521,100.309c-3.401,0-6.522-2.299-7.496-5.562c-0.964-3.232,0.263-6.771,3.022-8.706
		c5.866-4.115,13.938,1.608,12.024,8.51C484.142,97.905,481.008,100.309,477.521,100.309z"/>
	<path style="fill:#FFFFFF;" d="M423.187,100.309c-6.899,0-10.409-8.685-5.428-13.482c2.506-2.414,6.47-2.883,9.454-1.074
		c2.862,1.733,4.352,5.166,3.613,8.44C430.03,97.72,426.807,100.309,423.187,100.309z"/>
	<path style="fill:#FFFFFF;" d="M450.354,100.309c-3.337,0-6.401-2.206-7.437-5.379c-1.029-3.154,0.057-6.699,2.707-8.705
		c2.803-2.123,6.817-2.089,9.578,0.094c2.488,1.966,3.569,5.347,2.658,8.388C456.88,97.984,453.78,100.309,450.354,100.309z"/>
</g>
<g>
	<path style="fill:#1F3B63;" d="M145.765,281.04l47.915-31.337c0.729-0.546,1.822-0.728,2.733-0.728
		c3.825,0,8.745,4.008,8.745,9.109c0,2.187-1.093,4.191-2.732,5.284l-38.26,25.142l38.26,25.142
		c1.639,0.911,2.732,2.915,2.732,5.284c0,5.101-4.919,8.927-8.745,8.927c-0.911,0-2.004-0.182-2.733-0.728l-47.915-31.336
		c-2.733-1.822-4.009-4.919-4.009-7.288S143.032,282.862,145.765,281.04z"/>
	<path style="fill:#1F3B63;" d="M296.984,216.063c0,1.093-0.183,2.004-0.729,2.915l-66.863,133.363
		c-1.094,2.186-3.462,3.462-6.012,3.462c-4.191,0-7.106-3.462-7.106-6.741c0-0.911,0.183-1.822,0.546-2.733l67.046-133.91
		c1.094-2.369,3.098-3.28,5.466-3.28C292.976,209.139,296.984,211.872,296.984,216.063z"/>
	<path style="fill:#1F3B63;" d="M367.309,295.798l-47.916,31.336c-0.728,0.546-1.639,0.728-2.551,0.728
		c-4.008,0-8.745-3.826-8.745-8.927c0-2.369,1.093-4.373,2.551-5.284l38.442-25.142l-38.442-25.142
		c-1.459-1.093-2.551-3.097-2.551-5.284c0-5.101,4.737-9.109,8.745-9.109c0.911,0,1.822,0.182,2.551,0.728l47.916,31.336
		c2.732,1.822,4.008,5.101,4.008,7.47S370.223,293.976,367.309,295.798z"/>
</g>
<g>
</g>
<g>
</g>
<g>
</g>
<g>
</g>
<g>
</g>
<g>
</g>
<g>
</g>
<g>
</g>
<g>
</g>
<g>
</g>
<g>
</g>
<g>
</g>
<g>
</g>
<g>
</g>
<g>
</g>
</svg>
