<?xml version="1.0" encoding="utf-8"?>
<!-- Generator: Adobe Illustrator 23.1.0, SVG Export Plug-In . SVG Version: 6.00 Build 0)  -->
<svg version="1.1" id="圖層_1" xmlns="http://www.w3.org/2000/svg" xmlns:xlink="http://www.w3.org/1999/xlink" x="0px" y="0px"
	 viewBox="0 0 1024 768" style="enable-background:new 0 0 1024 768;" xml:space="preserve">
<style type="text/css">
	.st0{fill:#656D78;}
	.st1{fill:#545C66;}
	.st2{fill:#CCD1D9;}
	.st3{fill:#E6E9ED;}
	.st4{fill:#FA7268;}
	.st5{opacity:0.15;fill:#FFFFFF;}
	.st6{opacity:0.35;fill:#7A5A58;}
	.st7{fill:#C75B53;}
	.st8{fill:#7A3833;}
	.st9{fill:#FBB8B4;}
</style>
<path class="st0" d="M543.1,447.3v4.8h-62v-4.8c0-2.6,2.1-4.8,4.8-4.8h4.8h42.9h4.8C541,442.5,543.1,444.6,543.1,447.3z"/>
<path class="st1" d="M528.8,423.4l4.8,19.1h-42.9l4.8-19.1H528.8z"/>
<path class="st0" d="M586,418.7c0,2.6-2.1,4.8-4.8,4.8h-52.5h-33.4H443c-2.6,0-4.8-2.1-4.8-4.8v-4.8h0.1H586V418.7z"/>
<path class="st2" d="M586,323.3v4.8H438.2v-4.8c0-2.6,2.1-4.8,4.8-4.8h138.3C583.9,318.5,586,320.6,586,323.3z"/>
<path class="st3" d="M585.9,328v85.8H438.2h-0.1V328H585.9z M576.4,404.3v-66.8H447.6v66.8H576.4z"/>
<path class="st0" d="M581.1,425.8H442.9c-3.9,0-7.2-3.2-7.2-7.2v-95.4c0-3.9,3.2-7.2,7.2-7.2h138.3c3.9,0,7.2,3.2,7.2,7.2v95.4
	C588.3,422.6,585.1,425.8,581.1,425.8z M442.9,320.9c-1.3,0-2.4,1.1-2.4,2.4v95.4c0,1.3,1.1,2.4,2.4,2.4h138.3
	c1.3,0,2.4-1.1,2.4-2.4v-95.4c0-1.3-1.1-2.4-2.4-2.4H442.9z"/>
<path class="st3" d="M512.1,326.8c-1.3,0-2.4-1.1-2.4-2.4c0-1.3,1.1-2.4,2.4-2.4h0c1.3,0,2.4,1.1,2.4,2.4
	C514.5,325.8,513.4,326.8,512.1,326.8z"/>
<path class="st3" d="M512.1,326.8c-1.3,0-2.4-1.1-2.4-2.4c0-1.3,1.1-2.4,2.4-2.4h0c1.3,0,2.4,1.1,2.4,2.4
	C514.5,325.8,513.4,326.8,512.1,326.8z"/>
<path class="st3" d="M512.1,326.8c-1.3,0-2.4-1.1-2.4-2.4c0-1.3,1.1-2.4,2.4-2.4h0c1.3,0,2.4,1.1,2.4,2.4
	C514.5,325.8,513.4,326.8,512.1,326.8z"/>
<path class="st4" d="M576.5,330.9H447.7c-1.3,0-2.4,1.1-2.4,2.4v71.5c0,1.3,1.1,2.4,2.4,2.4h128.8c1.3,0,2.4-1.1,2.4-2.4v-71.5
	C578.9,332,577.8,330.9,576.5,330.9z"/>
<path class="st1" d="M512.1,422.2c-1.3,0-2.4-1.1-2.4-2.4c0-1.3,1.1-2.4,2.4-2.4h0c1.3,0,2.4,1.1,2.4,2.4
	C514.5,421.2,513.4,422.2,512.1,422.2L512.1,422.2z"/>
<path class="st5" d="M463.9,341h95.7v47.5h-95.7V341z"/>
<path class="st6" d="M516.6,388.5l28.7-25.9l14.4,13v13H516.6z"/>
<path class="st7" d="M499.8,355l-35.9,32.4v1.1h73L499.8,355z"/>
<g>
	<path class="st8" d="M497.1,396.2h4v4h-4V396.2z"/>
	<path class="st8" d="M510.1,396.2h4v4h-4V396.2z"/>
	<path class="st8" d="M523.1,396.2h4v4h-4V396.2z"/>
</g>
<ellipse class="st9" cx="476.6" cy="351.2" rx="4.3" ry="4.2"/>
<polygon class="st8" points="454.2,367.4 458.5,363.2 456.3,361.1 452.1,365.3 450,367.4 452.1,369.6 456.3,373.8 458.5,371.7 "/>
<polygon class="st8" points="570.6,367.4 566.4,363.2 568.5,361.1 572.7,365.3 574.9,367.4 572.7,369.6 568.5,373.8 566.4,371.7 "/>
</svg>
