<?xml version="1.0" encoding="utf-8"?>
<!-- Generator: Adobe Illustrator 22.0.1, SVG Export Plug-In . SVG Version: 6.00 Build 0)  -->
<svg version="1.1" id="圖層_1" xmlns="http://www.w3.org/2000/svg" xmlns:xlink="http://www.w3.org/1999/xlink" x="0px" y="0px"
	 viewBox="0 0 1024 768" style="enable-background:new 0 0 1024 768;" xml:space="preserve">
<style type="text/css">
	.st0{fill:#006CAB;}
	.st1{fill:#00A0DF;}
	.st2{fill:#FFFFFF;}
	.st3{fill:#0082CA;}
	.st4{fill:#F5F5F5;}
	.st5{fill:#003A5D;}
	.st6{fill:#009ADE;}
</style>
<g>
	<g>
		<ellipse class="st0" cx="510.3" cy="416.2" rx="58.8" ry="4.7"/>
		<g>
			<g>
				<path class="st0" d="M500.6,327.1c0,0,4.4-7.3,2.9-11.8c0,0-11.3,0.1-18.4,17.3C485.1,332.6,494.6,335.5,500.6,327.1z"/>
				<path class="st1" d="M521.6,323.7c0,0,2.5-1.9,3.5-6.4c0,0-10.8-5.8-24.1,8.3c0,0-9.8,1-16.7,7.4s-15.7,17.6-41.7,13.3
					c0,0-0.5-0.5-1,1.5c-0.5,2-2.5,6.9-0.5,19.7c2,12.8,10.8,14.7,10.8,14.7s5.9,9.3,10.3,12.8c4.4,3.5,12.3,5.9,14.3,10.3
					c2,4.4,2.9,9.3,2.9,9.3s0,2,3.5,2s7.9-2,6.9-9.8c0,0,30.9,6.9,47.5-0.5c0,0,0.5,8.8,6.9,8.8s6.9-9.3,8.3-15.7
					c0,0,23-13.7,27.5-40.7c0,0-8.9-1.9-12.3-8.8C564.3,342.8,564.8,324.2,521.6,323.7z"/>
				<path class="st2" d="M476.5,382.2c-1.3,0.7-3.2-9-4.1-13.4c-0.1-0.8,0.8-1.4,1.5-0.9l10,8c0.5,0.4,0.5,1,0.1,1.4
					C482.6,378.8,479,380.9,476.5,382.2z"/>
				<path class="st3" d="M510.8,368.8c2.5,0.4,4.6,0.7,6.8,0.8c2.2,0.1,4.5,0.2,7.4,0.1c0.5,0,1.1-0.1,2.1-0.1s2.2-0.1,3.8-0.1
					c0.8,0,2.1-0.1,3.2-0.1s2,0,2,0s0.8,0,1.8,0c1,0,2.2,0,3.1,0.1c2.3,0,4,0.2,5.5,0.2c1.4,0.1,2.5,0.1,3.2,0.2
					c1.4,0.1,2.7,0.2,4,0.2c0.6,0,1.2,0,1.7,0s1.1,0,1.7,0s1,0,1.7-0.1c0.5,0,1.1-0.1,1.6-0.1c1.1,0,2.3-0.1,3.5-0.1
					c-1.1-0.5-2.3-1-3.3-1.4c-0.5-0.2-1.1-0.4-1.6-0.6c-0.5-0.2-1-0.3-1.6-0.5c-0.5-0.1-1.1-0.3-1.7-0.5c-0.6-0.1-1.1-0.2-1.7-0.3
					c-1.2-0.2-2.6-0.4-4.1-0.5c-0.8-0.1-1.8-0.1-3.2-0.2c-1.4-0.1-3.3-0.2-5.6-0.2c-0.9,0-2.1,0-3.1-0.1c-1,0-1.8,0-1.8,0
					s-1,0-2.1,0s-2.5,0.1-3.3,0.1c-1.7,0-2.9,0.1-3.9,0.2c-1,0-1.7,0.1-2.1,0.1C518.9,366.2,515.6,367.1,510.8,368.8z"/>
				<path class="st3" d="M514.1,353.4c2.5,0.2,4.6,0.3,6.8,0.3c2.2,0,4.5-0.1,7.3-0.4c1-0.1,2.6-0.2,5.9-0.4c1-0.1,2.5-0.2,3.9-0.2
					c0.7,0,1.3,0,1.7,0c0.4,0,0.8,0,0.8,0s0.9,0,2.1,0c0.6,0,1.3,0,1.9,0.1c0.7,0,1.3,0.1,1.8,0.1c2.2,0.1,4,0.3,5.3,0.5
					c0.7,0.1,1.3,0.2,1.8,0.2c0.5,0.1,0.9,0.1,1.3,0.2c2.8,0.5,5,1,7,1.4c2,0.5,4,0.9,6.3,2c-1.5-2-3.3-3.5-5.3-4.6
					c-2-1.1-4.3-2-7.3-2.5c-0.4-0.1-0.8-0.2-1.3-0.2s-1.2-0.1-1.9-0.3c-1.5-0.2-3.3-0.4-5.6-0.5c-0.5,0-1.2-0.1-1.9-0.1
					c-0.7,0-1.4,0-2-0.1c-1.3,0-2.2,0-2.2,0s-0.3,0-0.8,0c-0.5,0-1.1,0-1.8,0c-1.4,0-3.1,0.1-4,0.2c-3.4,0.2-5,0.4-6.1,0.4
					c-2.9,0.3-5.3,0.8-7.4,1.4C518.3,351.5,516.4,352.3,514.1,353.4z"/>
				<path class="st3" d="M520.4,335.7c2.1,1,3.4,1.5,5.8,1.4c1.3-0.1,5-0.3,8.6-0.2c1.7,0,3.4,0.1,4.6,0.2c1.2,0.1,2,0.1,2,0.1
					s0.8,0.1,2,0.2c1.2,0.1,2.8,0.4,4.5,0.7s3.4,0.8,4.9,1.2c0.4,0.1,0.7,0.2,1,0.3c0.3,0.1,0.6,0.2,0.9,0.3c0.5,0.2,1,0.4,1.3,0.5
					c0.2,0.1,0.5,0.2,0.8,0.3c0.2,0.1,0.4,0.2,0.7,0.2c0.5,0.1,0.9,0.1,1.4,0.2c0.4,0.1,0.9,0.1,1.4,0.1c0.5,0,1,0,1.6,0.1
					c-0.2-0.5-0.5-1-0.8-1.4c-0.3-0.5-0.6-0.8-0.9-1.2c-0.3-0.4-0.7-0.7-1.1-1c-0.2-0.1-0.5-0.3-0.7-0.4c-0.2-0.2-0.5-0.2-0.8-0.4
					c-0.3-0.2-0.8-0.3-1.3-0.5c-0.3-0.1-0.6-0.2-1-0.4c-0.4-0.1-0.8-0.2-1.1-0.4c-1.6-0.5-3.4-0.9-5.3-1.3c-1.8-0.3-3.5-0.6-4.8-0.7
					c-1.3-0.1-2.1-0.2-2.1-0.2s-0.8-0.1-2.1-0.2c-1.3-0.1-3-0.1-4.8-0.1c-3.6-0.1-7.5,0.1-8.8,0.3
					C523.6,333.4,522.2,334.3,520.4,335.7z"/>
				<path class="st0" d="M461.6,384.5c0,0,12.8,0,23-8.3C484.7,376.2,480.8,385,461.6,384.5z"/>
			</g>
		</g>
		<ellipse class="st4" cx="488.9" cy="350.3" rx="4" ry="5.3"/>
		
			<ellipse transform="matrix(7.269794e-03 -1 1 7.269794e-03 133.426 839.0319)" class="st5" cx="489.3" cy="352.3" rx="3.2" ry="1.6"/>
	</g>
	<g>
		<g>
			<path class="st3" d="M396.2,433.2h10.3v4.4h-3v14.6h-4.3v-14.6h-2.9V433.2L396.2,433.2z"/>
			<path class="st6" d="M411.6,432.1h4.1v8.6h0.1c1.1-1.4,2.2-2.1,3.5-2.1c1,0,1.6,0.3,2.2,0.9s0.8,1.5,0.8,2.6v10h-4.1v-8
				c0-0.5-0.1-0.9-0.3-1.2c-0.2-0.3-0.4-0.5-0.8-0.5c-0.8,0-1.3,0.6-1.3,1.7v7.9h-4.1L411.6,432.1L411.6,432.1z"/>
			<path class="st6" d="M561.1,432.1h4.1v8.6h0.1c1-1.4,2.2-2.1,3.5-2.1c1,0,1.6,0.3,2.2,0.9s0.8,1.5,0.8,2.6v10h-4.1v-8
				c0-0.5-0.1-0.9-0.3-1.2s-0.4-0.5-0.8-0.5c-0.8,0-1.3,0.6-1.3,1.7v7.9h-4.1L561.1,432.1L561.1,432.1z"/>
			<path class="st6" d="M434.3,448.2h3.5c-0.7,2.9-2.3,4.4-5,4.4c-1.7,0-3-0.6-3.9-1.9c-1-1.3-1.4-3-1.4-5.3c0-2.1,0.5-3.8,1.4-5
				c1-1.3,2.3-1.9,3.8-1.9c1,0,1.9,0.3,2.8,0.9c0.9,0.6,1.6,1.4,2,2.4c0.4,1,0.6,2.5,0.7,4.7h-6.9c0.1,2,0.6,2.9,1.7,2.9
				c0.4,0,0.7-0.2,0.9-0.4C434.1,448.9,434.3,448.6,434.3,448.2z M431.3,444.4h3c0-0.9-0.2-1.6-0.4-2s-0.6-0.7-1-0.7
				c-0.5,0-1,0.2-1.2,0.7C431.5,442.7,431.3,443.5,431.3,444.4z"/>
			<path class="st3" d="M450.8,433.2h4.4c2.5,0,4.3,0.5,5.5,1.5c1.1,1,1.7,2.3,1.7,3.8c0,1.7-0.8,3-2.5,4c1.9,0.8,2.8,2.1,2.8,4.2
				c0,1.7-0.6,2.9-1.7,4c-1.1,1-2.6,1.5-4.5,1.5h-5.6L450.8,433.2L450.8,433.2z M455.1,436.8v4.1c1.9-0.1,2.8-0.8,2.8-2
				c0-0.8-0.2-1.3-0.7-1.6S456.1,436.9,455.1,436.8z M455.1,444.4v4.1c1.1,0,1.9-0.2,2.5-0.5c0.5-0.3,0.8-0.8,0.8-1.6
				c0-1.3-1-2-2.9-2L455.1,444.4L455.1,444.4z"/>
			<path class="st6" d="M473,438.6c1.9,0,3.3,0.6,4.3,1.9c1,1.3,1.5,3,1.5,5.3c0,2.2-0.5,3.9-1.5,5.1c-1.1,1.2-2.5,1.8-4.3,1.8
				c-1.7,0-3.1-0.6-4.1-1.8c-1-1.2-1.5-2.9-1.5-5c0-2.3,0.5-4,1.4-5.3C469.7,439.3,471.2,438.6,473,438.6z M473,448.9
				c0.5,0,1-0.2,1.2-0.8c0.3-0.5,0.4-1.3,0.4-2.5s-0.2-2-0.4-2.5c-0.3-0.5-0.7-0.8-1.2-0.8c-0.5,0-0.9,0.2-1.2,0.7s-0.4,1.4-0.4,2.5
				C471.5,447.8,472,448.9,473,448.9z"/>
			<path class="st6" d="M490.6,452.2v-1.7h-0.1c-0.5,0.8-1,1.3-1.4,1.7s-1,0.5-1.7,0.5c-1.3,0-2.3-0.6-3-1.9c-0.8-1.3-1.1-3-1.1-5.2
				c0-2.1,0.4-3.8,1.1-5c0.8-1.3,1.7-1.9,2.9-1.9c0.7,0,1.2,0.1,1.6,0.5c0.5,0.3,0.9,0.8,1.4,1.6h0.1v-1.7h4.1v13.1L490.6,452.2
				L490.6,452.2z M490.6,445.6c0-2.2-0.5-3.2-1.6-3.2s-1.6,1-1.6,3.2c0,2.3,0.5,3.4,1.7,3.4C490.1,448.9,490.6,447.8,490.6,445.6z"
				/>
			<path class="st6" d="M504.8,439.1v2.2h0.1c1-1.7,2-2.5,3.1-2.5c0.1,0,0.4,0,0.7,0.1v4.1c-0.5-0.1-1-0.2-1.4-0.2
				c-1.5,0-2.3,1-2.3,2.9v6.5h-4.1v-13H504.8z"/>
			<path class="st3" d="M519.5,433.2h10.3v4.4h-3v14.6h-4.4v-14.6h-2.9V433.2z"/>
			<path class="st6" d="M540,448.2h3.5c-0.7,2.9-2.3,4.4-5,4.4c-1.7,0-3-0.6-3.9-1.9c-1-1.3-1.4-3-1.4-5.3c0-2.1,0.4-3.8,1.4-5
				c1-1.3,2.3-1.9,3.8-1.9c1,0,1.9,0.3,2.8,0.9c0.9,0.6,1.6,1.4,1.9,2.4c0.4,1,0.6,2.5,0.7,4.7h-6.9c0.1,2,0.6,2.9,1.7,2.9
				c0.4,0,0.7-0.2,1-0.4C539.8,448.9,540,448.6,540,448.2z M537,444.4h3c0-0.9-0.2-1.6-0.4-2s-0.6-0.7-1-0.7c-0.5,0-1,0.2-1.2,0.7
				C537.2,442.7,537,443.5,537,444.4z"/>
			<path class="st6" d="M556.3,448.2v3.4c-1,0.7-2,1-3,1c-1.5,0-2.6-0.6-3.5-1.9c-0.9-1.3-1.3-3-1.3-5.1c0-2,0.4-3.7,1.3-4.9
				c0.9-1.3,2.1-2,3.5-2c1,0,2,0.4,3,1v3.4c-0.5-0.3-1.1-0.5-1.5-0.5c-0.7,0-1.2,0.3-1.6,0.8c-0.4,0.5-0.6,1.3-0.6,2.2
				c0,0.9,0.2,1.7,0.6,2.3c0.4,0.5,0.9,0.8,1.7,0.8C555.2,448.6,555.7,448.5,556.3,448.2z"/>
			<path class="st3" d="M583.5,433.2h4.3v19h-4.3V433.2z"/>
			<path class="st6" d="M598.6,439.1v1.8h0.1c1-1.5,2.2-2.2,3.5-2.2c0.9,0,1.6,0.3,2.2,0.9s0.8,1.4,0.8,2.5v10.1h-4.1v-8
				c0-0.5-0.1-0.8-0.3-1.1s-0.4-0.5-0.8-0.5c-0.9,0-1.4,0.5-1.4,1.7v8h-4.1v-13.1L598.6,439.1L598.6,439.1z"/>
			<path class="st6" d="M618.2,448.2v3.4c-1,0.7-1.9,1-3,1c-1.5,0-2.6-0.6-3.5-1.9c-0.9-1.3-1.4-3-1.4-5.1c0-2,0.5-3.7,1.4-4.9
				c0.9-1.3,2.1-2,3.5-2c1,0,2,0.4,3,1v3.4c-0.5-0.3-1-0.5-1.5-0.5c-0.7,0-1.2,0.3-1.6,0.8c-0.4,0.5-0.6,1.3-0.6,2.2
				c0,0.9,0.2,1.7,0.6,2.3c0.4,0.5,0.9,0.8,1.7,0.8C617.2,448.6,617.6,448.5,618.2,448.2z"/>
			<path class="st6" d="M623.2,450.2c0-0.7,0.2-1.2,0.7-1.6c0.5-0.5,1.1-0.7,1.7-0.7s1.2,0.2,1.7,0.7c0.4,0.4,0.7,1,0.7,1.6
				c0,0.6-0.2,1.2-0.8,1.7c-0.4,0.4-1,0.8-1.7,0.8c-0.7,0-1.2-0.2-1.6-0.7C623.4,451.4,623.2,450.9,623.2,450.2z"/>
		</g>
	</g>
</g>
</svg>
