<?xml version="1.0" encoding="utf-8"?>
<!-- Generator: Adobe Illustrator 22.0.1, SVG Export Plug-In . SVG Version: 6.00 Build 0)  -->
<svg version="1.1" id="圖層_1" xmlns="http://www.w3.org/2000/svg" xmlns:xlink="http://www.w3.org/1999/xlink" x="0px" y="0px"
	 viewBox="0 0 1024 768" style="enable-background:new 0 0 1024 768;" xml:space="preserve">
<style type="text/css">
	.st0{filter:url(#Adobe_OpacityMaskFilter);}
	.st1{fill:#FFFFFF;}
	.st2{mask:url(#SVGID_1_);}
	.st3{fill:url(#b_4_);}
	.st4{fill:url(#b_5_);}
	.st5{fill:url(#b_6_);}
	.st6{fill:url(#b_7_);}
	.st7{fill:url(#b_9_);}
	.st8{enable-background:new    ;}
</style>
<g>
	<defs>
		<filter id="Adobe_OpacityMaskFilter" filterUnits="userSpaceOnUse" x="297.5" y="259.3" width="429" height="213.4">
			<feColorMatrix  type="matrix" values="1 0 0 0 0  0 1 0 0 0  0 0 1 0 0  0 0 0 1 0"/>
		</filter>
	</defs>
	<mask maskUnits="userSpaceOnUse" x="297.5" y="259.3" width="429" height="213.4" id="SVGID_1_">
		<g class="st0">
			<g>
				<path class="st1" d="M464.2,349.2c-3.1-0.3-5.9,2-6.1,5.1l-3.8,43.2c-0.3,3.1,2,5.9,5.1,6.1c3.1,0.3,5.9-2,6.1-5.1l0,0l0.8-9.6
					l3.1-2.3c0,0,8.3,14.2,8.4,14.4c1.6,2.7,5.1,3.6,7.8,2c2.7-1.6,3.6-5.1,2-7.8c0,0,0,0,0,0l0,0l-9-15.3c0,0,10.1-7.4,10.2-7.6
					c2.5-1.9,3-5.4,1.2-7.9s-5.4-3-7.9-1.2c0,0-14.3,10.4-14.3,10.4l1.6-18.2h0C469.6,352.2,467.3,349.4,464.2,349.2z"/>
				<path class="st1" d="M533.5,370.1c-0.1,0.1-32,23.4-32,23.4c-2.5,1.8-3.1,5.4-1.2,7.9c1.6,2.2,4.4,2.9,6.8,1.9
					c0.4-0.2,0.8-0.4,1.1-0.6v0c0,0,35.7-26.1,36-26.4c3.9-3.2,6.3-8.1,6.3-13.5c0-2.9-0.7-5.7-2-8.1c-0.3-0.6-0.6-1.1-1-1.6
					c-1.5-2.3-3.5-4.1-5.9-5.5c-0.5-0.3-1-0.5-1.5-0.7c-0.1,0-0.8-0.3-1-0.4c-3.2-1.3-6.7-2-10.4-2c-9.4,0-17.8,4.7-22.8,11.9
					c-0.2,0.3-0.4,0.6-0.6,0.9c-0.1,0.2-0.2,0.3-0.2,0.5c-0.3,0.7-0.4,1.4-0.4,2.2c0,3.1,2.5,5.7,5.6,5.7c1.7,0,3.2-0.7,4.2-1.9
					c0.3-0.3,5.5-6.4,8.4-8.2c0.1-0.1,3.3-1.4,5-1.4c4.9,0,9,4,9,9c0,1-0.2,1.9-0.4,2.8C536,367.5,534.9,369,533.5,370.1z"/>
				<path class="st1" d="M539.7,392.4C539.7,392.4,539.7,392.4,539.7,392.4H532l-15.5,11.3h23.1h0v0c3.1,0,5.6-2.5,5.6-5.6
					C545.3,395,542.8,392.4,539.7,392.4z"/>
				<path class="st1" d="M433.2,371.4c2.9,0.1,5.4,1.4,7,3.5l0.3,0.4c0.9,1.4,2.5,2.4,4.3,2.6c3.1,0.3,5.9-2,6.2-5.2
					c0-0.1,0-0.3,0-0.4c0-1-0.2-1.9-0.7-2.8c-0.2-0.3-0.5-0.7-0.7-1c-0.1-0.1-0.2-0.2-0.3-0.3c-3.4-4.5-8.8-7.4-15-7.6
					c-11.6-0.4-22.4,8.9-23.6,21.1c-1.3,12.9,8.6,22.9,21.2,21.9c5.1-0.4,9.6-2.5,13.3-5.7c0.1,0,0.1-0.1,0.2-0.1c0,0,0,0,0.1-0.1
					c0.1-0.1,0.3-0.2,0.4-0.4c0.9-0.9,1.5-2.1,1.6-3.4c0.3-3.1-2-5.9-5.1-6.1c-1.5-0.1-3,0.4-4.1,1.2c0,0-0.1,0.1-0.1,0.1
					c0,0,0,0,0,0l0,0c-1.6,1.3-3.7,2.2-5.9,2.4c-5.9,0.5-10.5-4.2-9.9-10.2C422.7,375.6,427.8,371.2,433.2,371.4z"/>
				<circle class="st1" cx="401.4" cy="350.9" r="6.6"/>
				<path class="st1" d="M380.2,398.5l3.8-43.2c0.3-3.1-2-5.9-5.1-6.1c-3.1-0.3-5.9,2-6.1,5.1l-3.8,43.2c-0.3,3.1,2,5.9,5.1,6.1
					C377.2,403.9,379.9,401.6,380.2,398.5z"/>
				<path class="st1" d="M391.6,397.5c-0.3,3.1,2,5.9,5.1,6.1c3.1,0.3,5.9-2,6.1-5.1l2.9-31.8c0.3-3.1-2-5.9-5.1-6.1
					c-3.1-0.3-5.9,2-6.1,5.1L391.6,397.5z"/>
				<path class="st1" d="M644.1,403.7c3.5-0.3,6.7-1.8,9.5-4.1c0.6,2.2,2.5,3.8,4.9,4c3.1,0.3,5.9-2,6.1-5.1l2.9-31.8
					c0.3-3.1-2-5.9-5.1-6.1c-3.1-0.3-5.8,2-6.1,5.1c-2.4-2.2-5.5-3.5-8.9-3.7c-9.9-0.5-19.2,8.9-20.2,21.1
					C626.1,395.3,634,404.6,644.1,403.7z M635.4,383.7c0.6-7.1,5.8-12.6,11.3-12.3c4.4,0.2,7.7,4.1,8.3,9.2l-0.5,6
					c-1.4,4.9-5.2,8.7-9.6,9.1C639.2,396.3,634.8,390.9,635.4,383.7z"/>
				<path class="st1" d="M707.5,361.3c-2.7-1.6-6.2-0.8-7.8,1.9l-8.6,14.3l-7-13.8c-1.4-2.8-4.8-3.9-7.6-2.6
					c-2.8,1.4-3.9,4.8-2.6,7.6l10.2,20.2L674,406.1c-1.6,2.7-0.8,6.2,1.9,7.8c2.7,1.6,6.2,0.8,7.8-1.9l25.7-42.9
					C711.1,366.4,710.2,362.9,707.5,361.3z"/>
				<path class="st1" d="M619.3,398.6l4.3-48.1c0.3-3.1-2-5.9-5.1-6.1c-3.1-0.3-5.9,2-6.1,5.1l-4.3,48.1c-0.3,3.1,2,5.9,5.1,6.1
					C616.3,404,619,401.7,619.3,398.6z"/>
				<path class="st1" d="M587.7,349.1l-16.5,0v0c-2.7,0.2-4.9,2.4-5.2,5.1l-3.8,43.2c-0.3,3.1,2,5.9,5.1,6.1c3.1,0.3,5.9-2,6.1-5.1
					l0,0l1.2-13.3l9.9,0c10,0,18.8-8.1,19.7-18c0.9-10-6.6-18-16.5-18.1v0H587.7z M593.2,367.2c-0.3,3.8-3.6,6.7-7.4,6.7l-10,0
					l1.2-13.5l9.9,0C590.7,360.5,593.5,363.4,593.2,367.2z"/>
				<path class="st1" d="M584.6,385.3L584.6,385.3L584.6,385.3C584.7,385.3,584.6,385.3,584.6,385.3L584.6,385.3z"/>
				<path class="st1" d="M362.8,359.1c-0.1-0.2-0.3-0.4-0.5-0.6c-4.3-5.5-10.9-9-18.6-9.3c-14.6-0.4-28.3,11.2-29.8,26.7
					c-1.6,16.2,10.8,28.9,26.8,27.6c6.5-0.5,12.3-3.2,16.9-7.3l0,0c1.3-0.9,2.2-2.4,2.3-4.1c0.3-3.1-2-5.9-5.1-6.1
					c-1.7-0.1-3.3,0.5-4.5,1.6l0,0c-2.5,2.1-6.3,4.6-9.7,4.8c-9,0.7-16.1-6.6-15.2-15.9c0.9-8.9,8.6-16.2,16.9-16
					c4.4,0.1,8.2,1.1,10.7,4.3l0.4,0.6c0,0,0,0,0.1,0.1l0.1,0.1l0,0c0.9,1.3,2.4,2.1,4.1,2.3c3.1,0.3,5.9-2,6.1-5.1
					c0.1-1.3-0.2-2.5-0.9-3.5l0,0C362.8,359.2,362.8,359.2,362.8,359.1z"/>
			</g>
		</g>
	</mask>
	<g class="st2">
		
			<linearGradient id="b_4_" gradientUnits="userSpaceOnUse" x1="289.1001" y1="629.0991" x2="651.5751" y2="629.0991" gradientTransform="matrix(1 0 0 -1 8.3999 995.0991)">
			<stop  offset="0" style="stop-color:#36B06C"/>
			<stop  offset="1" style="stop-color:#24B9D8"/>
		</linearGradient>
		<polygon id="b_3_" class="st3" points="297.5,472.7 495,472.7 660,384.8 406.2,259.3 297.5,259.3 		"/>
		
			<linearGradient id="b_5_" gradientUnits="userSpaceOnUse" x1="-257.7008" y1="-63.0385" x2="-110.3814" y2="-63.0385" gradientTransform="matrix(1 0 0 1 547.5 445.501)">
			<stop  offset="0" style="stop-color:#22AAD1"/>
			<stop  offset="1" style="stop-color:#25B5D8"/>
		</linearGradient>
		<polygon id="b_8_" class="st4" points="437.2,381.7 297.5,312.3 297.5,452.6 		"/>
		
			<linearGradient id="b_6_" gradientUnits="userSpaceOnUse" x1="397.7751" y1="656.6241" x2="718.1001" y2="656.6241" gradientTransform="matrix(1 0 0 -1 8.3999 995.0991)">
			<stop  offset="0" style="stop-color:#F0881A"/>
			<stop  offset="1" style="stop-color:#F2CB23"/>
		</linearGradient>
		<polygon id="b_1_" class="st5" points="406.2,259.3 660,384.8 726.5,417.7 726.5,349.3 726.5,259.3 		"/>
		
			<linearGradient id="b_7_" gradientUnits="userSpaceOnUse" x1="486.6501" y1="584.0991" x2="718.1001" y2="584.0991" gradientTransform="matrix(1 0 0 -1 8.3999 995.0991)">
			<stop  offset="0" style="stop-color:#C22981"/>
			<stop  offset="1" style="stop-color:#523F95"/>
		</linearGradient>
		<polygon id="b_2_" class="st6" points="660,384.8 495,472.7 726.5,472.7 726.5,417.7 726.5,349.3 		"/>
		
			<linearGradient id="b_9_" gradientUnits="userSpaceOnUse" x1="651.5751" y1="611.6241" x2="718.1001" y2="611.6241" gradientTransform="matrix(1 0 0 -1 8.3999 995.0991)">
			<stop  offset="0" style="stop-color:#E6291A"/>
			<stop  offset="1" style="stop-color:#E95118"/>
		</linearGradient>
		<polygon id="b" class="st7" points="726.5,417.7 726.5,349.3 660,384.8 		"/>
	</g>
	<g class="st8">
		<path d="M343.5,448.4v-1.7h-4.9c-0.2,2.2-0.7,4.2-1.3,5.9l-2.6-2.3c0.5-1.3,0.8-2.7,1-4.4c0.2-1.6,0.3-4.2,0.3-7.7v-1.5l-1.2-0.9
			c1.5-2.4,2.6-5.2,3.3-8.4l3.2,0.3c0,0.2-0.1,0.7-0.3,1.3h4.1v2.7c-0.2,0.7-0.5,1.3-0.7,1.9h2v14.3c0,1.4-0.1,2.4-0.2,3
			s-0.3,0.9-0.6,1.1c-0.3,0.2-0.8,0.3-1.5,0.3c-0.5,0-1.6,0-3.5-0.1l-0.2-2.8c1.4,0.1,2.2,0.2,2.3,0.2c0.3,0,0.5-0.1,0.6-0.2
			C343.5,449.4,343.5,449.1,343.5,448.4z M338.9,441.6c0,0.1,0,0.9-0.1,2.5h1.2v-2.5H338.9z M338.9,439h1.1v-2.4h-1.1V439z
			 M341,433.9c0.4-0.9,0.7-1.5,0.8-1.9h-1.7c-0.3,0.7-0.5,1.4-0.8,1.9H341z M342.4,439h1.1v-2.4h-1.1V439z M342.4,441.6v2.5h1.1
			v-2.5H342.4z M355.6,444.7l3-0.6c0.7,2.4,1.3,5.1,1.8,8l-3.1,0.7c0-0.2-0.1-0.4-0.1-0.7c0-0.2-0.1-0.5-0.1-0.8
			c-0.1-0.3-0.1-0.5-0.1-0.7c-3.3,0.7-6.6,1.1-9.9,1.3l-0.3-3c1.9-0.1,3.5-0.2,4.8-0.4v-5.7h-1.4v1.6h-2.9v-9.7v-2.9h4.3v-3.5h3.5
			v3.5h4.5v11.1h-4.6v5.2c0.3-0.1,0.8-0.1,1.5-0.2C356,446.5,355.8,445.5,355.6,444.7z M351.6,434.7h-1.4v5.3h1.4V434.7z
			 M354.8,434.7v5.3h1.5v-5.3H354.8z"/>
		<path d="M371,440.5h-8.8v-2.8h9.2h0.4c0.7,0,1.4,0.2,1.9,0.7c0.6,0.4,1,1,1.3,1.6c0.3,0.6,0.6,1.3,0.7,2s0.2,1.4,0.2,2.1
			c0,0.9-0.1,1.9-0.4,2.7c-0.3,0.9-0.7,1.7-1.4,2.4c-0.6,0.7-1.5,1.1-2.4,1.1h-1h-4.7v-2.8h4.9c0.5,0,1-0.2,1.4-0.6s0.6-0.8,0.8-1.3
			c0.2-0.5,0.2-1,0.2-1.5c0-0.5-0.1-1-0.2-1.5s-0.4-0.9-0.8-1.3C372,440.8,371.6,440.6,371,440.5z"/>
		<path d="M379.3,434.5h16.9v3.6h-6c-0.7,0-1.3,0.3-1.8,0.8c-0.5,0.5-0.9,1-1.2,1.6c-0.3,0.6-0.4,1.2-0.5,1.9
			c-0.1,0.6,0,1.3,0.1,1.9c0.2,0.6,0.5,1.2,1.1,1.6c0.6,0.5,1.2,0.7,1.9,0.8h4.7v3.6H390c-2-0.1-3.4-0.5-4.4-1.4c-1-0.9-1.7-1.9-2-3
			c-0.4-1.1-0.5-2.3-0.4-3.4c0.2-1.7,0.7-3.1,1.6-4c0.1-0.1,0.2-0.2,0.3-0.3h-5.8V434.5z"/>
		<path d="M411,430.1h3.3v1.5c0.9-1.3,1.6-2.6,2.1-3.9l3.2,0.7c-0.3,0.8-0.5,1.2-0.6,1.4h4.2v2.9h-5.9c-0.3,0.5-0.7,1-1,1.4h6.7v2.8
			c-0.6,0.9-1.2,1.8-1.9,2.6v0.3h2.2v2.8h-2.2v1.8c0,1.8-0.1,2.9-0.4,3.2c-0.3,0.4-1.1,0.5-2.5,0.5c-0.6,0-1.7,0-3.2-0.1l-0.2-2.8
			c1,0.1,1.7,0.1,2.1,0.1c0.3,0,0.5-0.1,0.6-0.2s0.1-0.5,0.1-1v-1.5h-3.1v-2.8h3.1v-1.7h1.1c0.3-0.3,0.7-0.7,1.1-1.2h-4.6v-1.7
			l-2.7-1.5c0,0,0.2-0.3,0.6-0.7h-3.8v1.9h4.5c0,2.3,0,4.1,0,5.5c0,1.4-0.1,2.6-0.1,3.7c-0.1,1.1-0.2,1.9-0.3,2.4
			c-0.1,0.5-0.2,0.9-0.5,1.2c-0.2,0.3-0.4,0.5-0.6,0.5c-0.2,0.1-0.5,0.1-0.9,0.1c-0.5,0-1.5-0.1-3.1-0.3l-0.1-2.1
			c-0.2,0.7-0.6,1.4-1,2.2l-2.5-2v0.6c0.4,0.7,1,1.3,1.6,1.6s1.6,0.6,3,0.7c1.4,0.2,3.4,0.2,6.2,0.2h8.1l-0.2,2.9h-7.8
			c-3.5,0-6.1-0.2-7.9-0.5c-1.8-0.4-3.1-1-4-1.9c-1.2,1-2.4,2-3.6,2.8l-1.6-2.8c1-0.6,2-1.3,3-2.2v-6.5h-2.6v-2.9h5.9v7.1
			c0.5-1.2,0.9-2.6,1.1-4.3c0.2-1.7,0.3-4.3,0.3-8h-1.1c0.1,0.1,0.2,0.2,0.4,0.4c0.2,0.2,0.3,0.3,0.3,0.4l-2.3,2
			c-1.3-1.5-2.8-3.1-4.6-4.9l2.3-2.1c1.2,1.3,2.3,2.4,3.3,3.5v-2.3h2.9V428h3.5V430.1z M408.5,445.3c0.9,0.1,1.4,0.2,1.4,0.2
			c0.2,0,0.3-0.1,0.4-0.2s0.2-0.5,0.2-1c0.1-0.5,0.1-1.3,0.1-2.3c0-1,0-2.4,0-4.2h-1.3C409.3,441.1,409,443.5,408.5,445.3z"/>
		<path d="M432.9,438.1c-0.4-0.5-0.9-0.8-1.4-0.7c-0.7,0.2-1,0.5-1,1v10.1h-3.6v-9.6c0-1.4,0.4-2.6,1.2-3.4c0.8-0.9,1.9-1.3,3.4-1.3
			c1.6,0,2.8,0.3,3.4,1.1c0.7,0.7,1.1,1.3,1.4,1.7l11.1,13.2h-4.6L432.9,438.1z M437.3,436c0-0.5,0.2-1,0.6-1.4
			c0.4-0.4,0.8-0.6,1.4-0.6s1,0.2,1.4,0.6c0.4,0.4,0.6,0.8,0.6,1.4c0,0.5-0.2,1-0.6,1.4c-0.4,0.4-0.8,0.6-1.4,0.6s-1-0.2-1.4-0.6
			C437.5,437,437.3,436.5,437.3,436z M441.9,436c0-0.5,0.2-1,0.6-1.4c0.4-0.4,0.8-0.6,1.4-0.6c0.5,0,1,0.2,1.4,0.6
			c0.4,0.4,0.6,0.8,0.6,1.4c0,0.5-0.2,1-0.6,1.4c-0.4,0.4-0.8,0.6-1.4,0.6c-0.5,0-1-0.2-1.4-0.6C442.1,437,441.9,436.5,441.9,436z"
			/>
		<path d="M449.7,434.5h12.5c0.5,0,0.9,0.1,1.3,0.4c0.3,0.3,0.5,0.6,0.5,1c0,0.2-0.1,0.5-0.2,0.7l-3.5,2.5h0.8c0.1,0,0.2,0,0.3,0
			h0.2c0.9,0,1.7,0.3,2.5,0.9c0.8,0.6,1.4,1.2,1.7,2c0.4,0.7,0.5,1.5,0.5,2.2c0,1-0.2,1.9-0.5,2.6c-0.3,0.7-0.9,1.5-1.7,2.1
			c-0.8,0.7-1.8,1.1-3.1,1.1h-7.9c-0.1,0-0.2,0-0.3,0c-0.9,0-1.7-0.2-2.4-0.6c-0.7-0.4-1.1-0.8-1.4-1.3c-0.3-0.5-0.4-1-0.4-1.4
			c0-0.5,0.1-1,0.4-1.5c0.3-0.5,0.8-1,1.5-1.3c0.7-0.4,1.5-0.5,2.3-0.5h2.9c1.6,0.1,2.8,0.6,3.5,1.5c0.5,0.7,0.8,1.4,1,2.3h0.9
			c0.3,0,0.6-0.1,0.8-0.4c0.2-0.3,0.4-0.6,0.5-1s0.2-0.8,0.2-1.4c0-0.3-0.1-0.7-0.2-1c-0.1-0.4-0.3-0.7-0.5-0.9
			c-0.2-0.3-0.5-0.4-0.8-0.4H448v-3h7.5l2.4-1.8h-8.2V434.5z M455.7,445.9H453c-0.2,0-0.4,0-0.5,0.1c-0.1,0.1-0.2,0.2-0.3,0.3
			c-0.1,0.1-0.1,0.2-0.1,0.3c0,0.1,0,0.2,0.1,0.3c0.1,0.1,0.2,0.2,0.3,0.3c0.1,0.1,0.3,0.1,0.5,0.1h4.2
			C456.9,446.4,456.4,446,455.7,445.9z"/>
		<path d="M493.7,432.6v2.9h-5.8c1.5,3.6,3.6,7,6.4,10.4l-1.9,3.4c-0.7-0.8-1.3-1.8-2.1-2.8v1.8h-4.2v4.3h-3.5v-4.3h-4.4v-1.8
			c-0.8,1.1-1.5,2-2.2,2.8l-1.7-2v5.2H471v-11.3c-0.6,1-1.2,1.9-1.9,2.6l-1-4.2c2.2-3,3.8-6.8,4.7-11.4l3.2,0.6
			c-0.2,1.4-0.5,2.6-0.8,3.7h7.4v-4.2h3.5v4.2H493.7z M481,435.5h-5.9v-2.4c-0.2,0.6-0.4,1.3-0.8,2.2v10.5
			C477.3,442.5,479.5,439.1,481,435.5z M482.6,438.5c-1.1,2.6-2.3,4.9-3.7,7h3.7V438.5z M489.7,445.5c-1.4-2.2-2.6-4.6-3.6-7v7
			H489.7z"/>
		<path d="M495.6,451c0.5-2.2,0.8-4.5,1-6.9l1.8,0.3c-0.1,2.3-0.4,4.7-0.9,7.2L495.6,451z M519.9,437.1v8.3h-4.2
			c0.6,1.7,2.5,3.1,5.6,4.1l-1.1,3c-2.7-1-4.8-2.6-6.2-4.9c-1.5,2.3-3.7,3.9-6.5,4.9l-0.8-2.1c-0.2,0.8-0.4,1.3-0.8,1.6
			c-0.3,0.3-0.8,0.4-1.4,0.4c-0.5,0-1.2-0.1-2.1-0.2l-0.2-2.5l-0.5,0.1c-0.1-1.2-0.3-3-0.7-5.4l1.6-0.3c0.3,2,0.5,3.8,0.7,5.4
			c0.3,0,0.5,0.1,0.5,0.1c0.1,0,0.2,0,0.3-0.1c0.1,0,0.1-0.2,0.2-0.4s0.1-0.5,0.1-1l-0.6,0.1c-0.1-0.7-0.3-2-0.7-3.9l1.4-0.3v-0.5
			h-7.6V429h10.5v2.8h-2.4v1.5h2.1c2-1.5,3.8-3.2,5.4-5.1h2.9c1.7,2.1,3.8,4,6.1,5.7l-1.2,2.9c-0.8-0.6-1.6-1.2-2.3-1.8v0.7h-2.4
			v1.3H519.9z M499.2,451c0-1.5-0.2-3.7-0.3-6.5l1.6-0.2c0.2,2.5,0.4,4.7,0.5,6.5L499.2,451z M501.8,433.3v-1.5H500v1.5H501.8z
			 M501.8,435.5H500v1.5h1.8V435.5z M501.8,439.3H500v1.6h1.8V439.3z M511.7,445.4h-1.3h-2.8v-8.3h4.5v-1.3h-2.4v-0.9
			c-0.7,0.6-1.5,1.2-2.5,1.9l-0.6-1.3h-1.9v1.5h2v2.2h-2v1.6h2.2v2.6c0,2.7-0.1,4.6-0.2,5.8C509.3,448.3,511,447,511.7,445.4z
			 M512.1,442.8v-3.2h-1.7v3.2H512.1z M515.8,433.1c-0.9-1-1.6-1.8-2.1-2.5c-0.6,0.8-1.4,1.7-2.2,2.5H515.8z M515.3,442.8h1.7v-3.2
			h-1.7V442.8z"/>
		<path d="M545.1,446.8h-7.7v2.2h10.2v2.8h-24V449h10.2v-2.2h-8.1v-2.7h8.1v-1.5h-2v-5.1h-2.6c-0.2,1.4-0.6,2.6-1.1,3.6
			c-0.5,1-1.2,1.9-2.1,2.7l-2.6-2.2c0.7-0.6,1.2-1.2,1.6-1.8c0.4-0.6,0.7-1.3,0.8-2.2h-2.5v-2.8h2.8c0-0.3,0-0.8,0-1.5v-1.3h-2.3
			v-2.8h13.4v2.8h-2.1v2.8h2.1v2.8h-2.1v4h2.2v2.7h7.7V446.8z M529.4,434.7h2.3v-2.8h-2.3v1.3C529.5,433.9,529.5,434.4,529.4,434.7z
			 M538.4,439.1v-9.9h3.1v9.9H538.4z M543.8,428.7h3.4v9.6c0,1.1,0,1.9-0.1,2.4c-0.1,0.5-0.2,0.9-0.5,1.3c-0.3,0.3-0.7,0.5-1.1,0.6
			c-0.4,0.1-1.1,0.1-2,0.1c-0.3,0-1.5,0-3.6-0.1l-0.2-2.9c1.8,0.1,2.8,0.1,3.1,0.1c0.5,0,0.8-0.1,0.9-0.2s0.2-0.5,0.2-1.1V428.7z"/>
		<path d="M551.1,434.5H567c0.5,0,0.9,0.2,1.3,0.5c0.4,0.4,0.5,0.8,0.5,1.3l-0.8,6.2c-0.2,1.3-0.5,2.4-1,3.6
			c-0.5,1.1-1.2,2.1-2.1,2.8c-0.9,0.8-2,1.2-3.2,1.3h-6.4v-3.6h5.9c0.7,0,1.3-0.3,1.8-0.8c0.5-0.5,0.9-1,1-1.6
			c0.2-0.6,0.3-1.3,0.4-2l0.5-3.5c0.1-0.4-0.1-0.6-0.5-0.7h-13.3V434.5z M560.8,431.6c0-0.5,0.2-1,0.6-1.4c0.4-0.4,0.8-0.6,1.4-0.6
			s1,0.2,1.4,0.6c0.4,0.4,0.6,0.8,0.6,1.4s-0.2,1-0.6,1.4s-0.8,0.6-1.4,0.6s-1-0.2-1.4-0.6S560.8,432.1,560.8,431.6z M565.4,431.6
			c0-0.5,0.2-1,0.6-1.4c0.4-0.4,0.8-0.6,1.4-0.6c0.5,0,1,0.2,1.4,0.6c0.4,0.4,0.6,0.8,0.6,1.4s-0.2,1-0.6,1.4
			c-0.4,0.4-0.8,0.6-1.4,0.6c-0.5,0-1-0.2-1.4-0.6C565.6,432.5,565.4,432.1,565.4,431.6z"/>
		<path d="M572.2,434.5h18v3.6h-18V434.5z M572.2,440h16.4c0.5,0,0.9,0.2,1.3,0.5c0.4,0.4,0.5,0.8,0.5,1.3l-0.1,1
			c-0.2,1.1-0.5,2.2-1,3.3c-0.5,1.1-1.2,2.1-2.1,2.8c-0.9,0.8-2,1.2-3.2,1.3h-6.8v-3.6h6.4c0.7,0,1.3-0.3,1.8-0.8
			c0.5-0.5,0.9-1,1.1-1.7c0.1-0.4,0-0.6-0.3-0.6h-13.8V440z"/>
		<path d="M595.8,435.9h4.9v-1.8h3.6v1.8h5.6c0.5,0,0.9,0.2,1.3,0.5c0.4,0.4,0.5,0.8,0.5,1.3l-0.6,4.9c-0.2,1.3-0.5,2.4-1,3.6
			c-0.5,1.1-1.2,2.1-2.1,2.8s-2,1.2-3.2,1.3h-3.8v-3.6h3.4c0.7,0,1.3-0.3,1.8-0.8c0.5-0.5,0.9-1,1-1.6c0.2-0.6,0.3-1.3,0.4-2
			l0.2-2.1c0.1-0.4-0.1-0.6-0.5-0.7h-9.5c-0.6,0-0.9,0.3-0.9,0.9v4.2h-3.6v-6.3c0-0.7,0.2-1.3,0.7-1.7
			C594.4,436.1,595,435.9,595.8,435.9z"/>
		<path d="M615.2,436.4h3.3V434h3.6v2.4h5.9l0.2-2.4h3.6l-0.2,2.4h3.1v3.6h-3.6l-0.4,2.5c-0.2,1.3-0.5,2.4-1,3.6
			c-0.5,1.1-1.2,2.1-2.1,2.8s-2,1.2-3.2,1.3h-5.6v-3.6h5.2c0.7,0,1.3-0.3,1.8-0.8c0.5-0.5,0.9-1,1-1.6c0.2-0.6,0.3-1.3,0.4-2
			l0.3-2.2h-5.4v4.1h-3.6V440h-3.3V436.4z M625.9,431.6c0-0.5,0.2-1,0.6-1.4c0.4-0.4,0.8-0.6,1.4-0.6s1,0.2,1.4,0.6
			c0.4,0.4,0.6,0.8,0.6,1.4s-0.2,1-0.6,1.4c-0.4,0.4-0.8,0.6-1.4,0.6s-1-0.2-1.4-0.6S625.9,432.1,625.9,431.6z M630.4,431.6
			c0-0.5,0.2-1,0.6-1.4c0.4-0.4,0.8-0.6,1.4-0.6s1,0.2,1.4,0.6c0.4,0.4,0.6,0.8,0.6,1.4s-0.2,1-0.6,1.4s-0.8,0.6-1.4,0.6
			s-1-0.2-1.4-0.6C630.6,432.5,630.4,432.1,630.4,431.6z"/>
		<path d="M652.4,430.7h9.3v3h-18.8v5.4c0,5.7-1,10.1-3.1,13.3l-2.5-2.9c0.8-1.4,1.3-3.1,1.6-5c0.3-1.9,0.5-4.5,0.5-7.8v-5.9h9.3
			v-2.9h3.6V430.7z M653.9,442.3l3.1-1.5c2.1,3.6,3.9,7,5.4,10.3l-3.1,1.5c-0.2-0.5-0.7-1.4-1.2-2.5c-5.3,0.9-10.6,1.4-15.9,1.6
			l-0.2-3c0.5,0,1.3-0.1,2.3-0.1c1.9-4.3,3.6-8.9,5.2-14l3.6,0.8c-1.4,4.3-3,8.7-4.9,13c3-0.3,5.8-0.6,8.4-0.9
			C655.9,445.9,655,444.2,653.9,442.3z"/>
		<path d="M688,431v2.8h-8.5v3.7h9.8v2.9h-24v-2.9h10.6v-3.7h-5.1c-0.6,1.1-1.4,2.3-2.3,3.6l-3.1-1.6c1.7-2.4,3.1-4.9,4.1-7.5
			l3.3,0.8c-0.2,0.7-0.5,1.3-0.7,2h3.8v-2.7h3.6v2.7H688z M671.6,451v1.2h-3.5v-10.2h18.3v10.2h-3.5V451H671.6z M671.6,448.4h11.2
			v-3.6h-11.2V448.4z"/>
	</g>
</g>
</svg>
