<?xml version="1.0" encoding="utf-8"?>
<!-- Generator: Adobe Illustrator 22.0.1, SVG Export Plug-In . SVG Version: 6.00 Build 0)  -->
<svg version="1.1" id="圖層_1" xmlns="http://www.w3.org/2000/svg" xmlns:xlink="http://www.w3.org/1999/xlink" x="0px" y="0px"
	 viewBox="0 0 500 386" style="enable-background:new 0 0 500 386;" xml:space="preserve">
<style type="text/css">
	.st0{fill:#4D4D4D;}
	.st1{fill:#8CC63F;}
</style>
<g>
	<g>
		<path class="st0" d="M181.9,193.8h-2.8l-4.6-6.6l-1.4,1.1v5.5h-2.4v-14.6h2.4v7c0.7-0.8,1.3-1.6,2-2.3l3.9-4.7h2.7
			c-2.5,3-4.4,5.1-5.5,6.4L181.9,193.8z"/>
		<path class="st0" d="M189.8,193.8h-6.7v-12h6.7v1.2h-5.3v3.9h5v1.2h-5v4.4h5.3V193.8z"/>
		<path class="st0" d="M201.2,193.8h-1.4v-5.7h-6.4v5.7H192v-12h1.4v5.1h6.4v-5.1h1.4V193.8z"/>
		<path class="st0" d="M204.1,193.8v-12h1.4v10.8h5.3v1.3L204.1,193.8L204.1,193.8z"/>
		<path class="st0" d="M217.8,193.8l-4.1-10.7h-0.1c0.1,0.8,0.1,1.9,0.1,3v7.7h-1.3v-12h2.1l3.8,10h0.1l3.8-10h2.1v12h-1.4v-7.8
			c0-0.9,0.1-1.9,0.1-2.9H223l-4.1,10.7H217.8z"/>
		<path class="st0" d="M234.8,193.8l-1.5-3.8h-4.8l-1.5,3.8h-1.4l4.8-12.1h1.2l4.7,12.1H234.8z M232.8,188.8l-1.4-3.7
			c-0.2-0.4-0.4-1.1-0.6-1.7c-0.1,0.5-0.3,1.1-0.5,1.7l-1.4,3.7H232.8z"/>
		<path class="st0" d="M246.9,193.8h-1.6l-6.6-10.1h-0.1c0.1,1.2,0.1,2.3,0.1,3.3v6.9h-1.3v-12h1.6l6.6,10.1h0.1
			c0-0.2-0.1-0.6-0.1-1.4s-0.1-1.4-0.1-1.7v-6.9h1.3V193.8L246.9,193.8z"/>
		<path class="st0" d="M259.2,193.8h-1.6l-6.6-10.1H251c0.1,1.2,0.1,2.3,0.1,3.3v6.9h-1.3v-12h1.6l6.6,10.1h0.1
			c0-0.2-0.1-0.6-0.1-1.4s-0.1-1.4-0.1-1.7v-6.9h1.3V193.8z"/>
		<path class="st1" d="M267.1,179.2h4.3c2,0,3.5,0.3,4.4,0.9c0.9,0.6,1.4,1.5,1.4,2.8c0,0.8-0.2,1.6-0.7,2.1s-1.1,0.9-1.9,1.1v0.1
			c1,0.2,1.8,0.6,2.3,1.1c0.5,0.6,0.7,1.4,0.7,2.3c0,1.3-0.4,2.4-1.4,3.1c-0.9,0.7-2.2,1.1-3.8,1.1h-5.3V179.2z M269.6,185.3h2.3
			c1,0,1.7-0.2,2.2-0.5c0.5-0.3,0.7-0.8,0.7-1.6c0-0.7-0.2-1.2-0.7-1.5c-0.5-0.3-1.3-0.4-2.4-0.4h-2.1V185.3z M269.6,187.2v4.6h2.5
			c1,0,1.7-0.2,2.3-0.6c0.5-0.4,0.8-1,0.8-1.8c0-0.7-0.3-1.3-0.8-1.7c-0.5-0.4-1.3-0.6-2.4-0.6H269.6z"/>
		<path class="st1" d="M286.6,193.8h-6.8v-12h6.8v1.2h-5.3v3.9h5v1.2h-5v4.4h5.3V193.8z"/>
		<path class="st1" d="M290.3,188.8v5h-1.4v-12h3.3c1.5,0,2.6,0.3,3.3,0.8c0.7,0.6,1.1,1.4,1.1,2.5c0,1.6-0.8,2.6-2.4,3.2l3.3,5.4
			h-1.6l-2.9-5L290.3,188.8L290.3,188.8z M290.3,187.6h1.9c1,0,1.7-0.2,2.2-0.6s0.7-1,0.7-1.7c0-0.8-0.2-1.3-0.7-1.7
			c-0.4-0.3-1.2-0.5-2.3-0.5h-1.8V187.6z"/>
		<path class="st1" d="M298.9,193.8v-12h1.4v10.8h5.3v1.3L298.9,193.8L298.9,193.8z"/>
		<path class="st1" d="M313.9,193.8h-6.7v-12h6.7v1.2h-5.3v3.9h5v1.2h-5v4.4h5.3V193.8z"/>
		<path class="st1" d="M319.2,187.8l3.2-6h1.5l-4,7.4v4.7h-1.4v-4.6l-4-7.4h1.5L319.2,187.8z"/>
		<path class="st1" d="M332,190.6c0,1.1-0.4,1.9-1.2,2.5s-1.8,0.9-3.1,0.9c-1.4,0-2.5-0.2-3.3-0.6v-1.4c0.5,0.2,1,0.4,1.6,0.5
			c0.6,0.1,1.2,0.2,1.7,0.2c1,0,1.6-0.2,2.1-0.5c0.5-0.3,0.7-0.8,0.7-1.5c0-0.4-0.1-0.8-0.2-1c-0.2-0.3-0.4-0.5-0.8-0.7
			c-0.4-0.2-1-0.5-1.8-0.8c-1.1-0.4-1.9-0.9-2.4-1.4c-0.5-0.6-0.7-1.3-0.7-2.1c0-1,0.3-1.7,1.1-2.2c0.7-0.5,1.6-0.8,2.8-0.8
			c1.2,0,2.3,0.2,3.3,0.7l-0.5,1.2c-1-0.4-2-0.6-2.9-0.6c-0.7,0-1.3,0.2-1.7,0.4s-0.6,0.8-0.6,1.4c0,0.4,0.1,0.8,0.2,1
			c0.2,0.2,0.4,0.5,0.8,0.7c0.3,0.2,0.9,0.5,1.7,0.7c1.2,0.4,2.1,1,2.6,1.5C331.7,189.1,332,189.8,332,190.6z"/>
	</g>
	<g>
		<g>
			<path class="st0" d="M200.7,207.7L200,206h-2.3l-0.6,1.7h-1l2.3-6.1h1.1l2.3,6.1H200.7z M199.8,205.2l-0.6-1.6
				c-0.1-0.1-0.1-0.3-0.2-0.5c-0.1-0.2-0.1-0.4-0.2-0.5c-0.1,0.3-0.2,0.7-0.3,1.1l-0.6,1.6L199.8,205.2L199.8,205.2z"/>
			<path class="st0" d="M202.3,207.7v-6h1v5.2h2.5v0.8H202.3z"/>
			<path class="st0" d="M208.8,207.7h-1v-5.2H206v-0.8h4.5v0.8h-1.7L208.8,207.7L208.8,207.7z"/>
			<path class="st0" d="M214.6,207.7h-3.4v-6h3.4v0.8h-2.4v1.6h2.3v0.8h-2.3v1.9h2.4L214.6,207.7L214.6,207.7z"/>
			<path class="st0" d="M216.7,205.3v2.4h-1v-6h1.7c0.8,0,1.3,0.2,1.7,0.4c0.4,0.3,0.6,0.7,0.6,1.3c0,0.7-0.4,1.3-1.2,1.6l1.7,2.6
				h-1.1l-1.5-2.4L216.7,205.3L216.7,205.3z M216.7,204.5h0.7c0.5,0,0.8-0.1,1-0.3s0.3-0.4,0.3-0.7c0-0.3-0.1-0.6-0.3-0.7
				c-0.2-0.2-0.6-0.2-1-0.2h-0.7L216.7,204.5L216.7,204.5z"/>
			<path class="st0" d="M225.9,207.7h-1.2l-3-4.8h-0.1v0.3c0.1,0.5,0.1,1,0.1,1.4v3.1h-0.9v-6h1.2l3,4.8l0,0c0-0.1,0-0.3-0.1-0.7
				c-0.1-0.4,0-0.7,0-1v-3.1h0.9L225.9,207.7L225.9,207.7z"/>
			<path class="st0" d="M231,207.7l-0.6-1.7h-2.3l-0.6,1.7h-1l2.3-6.1h1.1l2.3,6.1H231z M230.2,205.2l-0.6-1.6
				c-0.1-0.1-0.1-0.3-0.2-0.5c-0.1-0.2-0.1-0.4-0.2-0.5c-0.1,0.3-0.2,0.7-0.3,1.1l-0.6,1.6L230.2,205.2L230.2,205.2z"/>
			<path class="st0" d="M234.8,207.7h-1v-5.2H232v-0.8h4.5v0.8h-1.7V207.7L234.8,207.7z"/>
			<path class="st0" d="M237.2,207.7v-6h1v6H237.2z"/>
			<path class="st0" d="M243,201.7h1l-2.1,6h-1l-2.1-6h1l1.2,3.8c0.1,0.2,0.1,0.4,0.2,0.7c0.1,0.3,0.1,0.5,0.2,0.6
				c0.1-0.2,0.1-0.4,0.2-0.7s0.1-0.5,0.2-0.6L243,201.7z"/>
			<path class="st0" d="M248,207.7h-3.4v-6h3.4v0.8h-2.4v1.6h2.3v0.8h-2.3v1.9h2.4V207.7z"/>
			<path class="st0" d="M251.1,207.7v-6h1v6H251.1z"/>
			<path class="st0" d="M258.5,207.7h-1.2l-3-4.8h-0.1v0.3c0.1,0.5,0.1,1,0.1,1.4v3.1h-0.9v-6h1.2l3,4.8l0,0c0-0.1,0-0.3-0.1-0.7
				s0-0.7,0-1v-3.1h0.9L258.5,207.7L258.5,207.7z"/>
			<path class="st0" d="M263.3,201.7h1l-2.1,6h-1l-2.1-6h1l1.2,3.8c0.1,0.2,0.1,0.4,0.2,0.7c0.1,0.3,0.1,0.5,0.2,0.6
				c0.1-0.2,0.1-0.4,0.2-0.7c0.1-0.3,0.1-0.5,0.2-0.6L263.3,201.7z"/>
			<path class="st0" d="M268.3,207.7h-3.4v-6h3.4v0.8h-2.4v1.6h2.3v0.8h-2.3v1.9h2.4V207.7z"/>
			<path class="st0" d="M272.9,206.1c0,0.6-0.2,1-0.6,1.2c-0.4,0.3-0.9,0.5-1.6,0.5c-0.7,0-1.2-0.1-1.7-0.3v-1
				c0.3,0.1,0.6,0.2,0.9,0.3c0.3,0.1,0.6,0.1,0.8,0.1c0.4,0,0.7-0.1,0.8-0.2c0.2-0.2,0.3-0.3,0.3-0.6c0-0.2-0.1-0.4-0.3-0.6
				c-0.2-0.2-0.5-0.3-1.1-0.6s-1-0.4-1.2-0.8c-0.2-0.3-0.3-0.6-0.3-1c0-0.5,0.2-0.9,0.6-1.2c0.3-0.3,0.8-0.5,1.5-0.5
				c0.6,0,1.1,0.1,1.7,0.4l-0.3,0.8c-0.6-0.2-1-0.3-1.4-0.3c-0.3,0-0.6,0.1-0.7,0.2c-0.2,0.2-0.2,0.3-0.2,0.6c0,0.2,0.1,0.3,0.1,0.4
				c0.1,0.1,0.2,0.2,0.3,0.3c0.2,0.1,0.4,0.2,0.8,0.4c0.5,0.2,0.8,0.3,1,0.5c0.2,0.2,0.3,0.3,0.4,0.6
				C272.8,205.6,272.9,205.8,272.9,206.1z"/>
			<path class="st0" d="M275.9,207.7h-1v-5.2h-1.7v-0.8h4.5v0.8h-1.7V207.7z"/>
			<path class="st0" d="M281,207.7l-1.7-5h-0.1c0.1,0.7,0.1,1.5,0.1,2.1v2.9h-0.9v-6h1.4l1.7,4.8l0,0l1.7-4.8h1.4v6h-1v-3
				c0-0.3,0-0.7,0-1.2s0.1-0.8,0.1-0.9h-0.1l-1.8,5L281,207.7L281,207.7z"/>
			<path class="st0" d="M289.4,207.7h-3.4v-6h3.4v0.8H287v1.6h2.3v0.8H287v1.9h2.4V207.7z"/>
			<path class="st0" d="M295.5,207.7h-1.2l-3-4.8h-0.1v0.3c0.1,0.5,0.1,1,0.1,1.4v3.1h-0.9v-6h1.2l3,4.8l0,0c0-0.1,0-0.3-0.1-0.7
				c-0.1-0.4,0-0.7,0-1v-3.1h0.9L295.5,207.7L295.5,207.7z"/>
			<path class="st0" d="M299,207.7h-1v-5.2h-1.7v-0.8h4.5v0.8H299V207.7z"/>
			<path class="st0" d="M304.9,206.1c0,0.6-0.2,1-0.6,1.2c-0.4,0.3-0.9,0.5-1.6,0.5s-1.2-0.1-1.7-0.3v-1c0.3,0.1,0.6,0.2,0.9,0.3
				c0.3,0.1,0.6,0.1,0.8,0.1c0.4,0,0.7-0.1,0.8-0.2c0.2-0.2,0.3-0.3,0.3-0.6c0-0.2-0.1-0.4-0.3-0.6c-0.2-0.2-0.5-0.3-1.1-0.6
				s-1-0.4-1.2-0.8c-0.2-0.3-0.3-0.6-0.3-1c0-0.5,0.2-0.9,0.6-1.2c0.3-0.3,0.8-0.5,1.5-0.5c0.6,0,1.1,0.1,1.7,0.4l-0.3,0.8
				c-0.6-0.2-1-0.3-1.4-0.3c-0.3,0-0.6,0.1-0.7,0.2s-0.2,0.3-0.2,0.6c0,0.2,0.1,0.3,0.1,0.4s0.2,0.2,0.3,0.3
				c0.2,0.1,0.5,0.2,0.8,0.4c0.4,0.2,0.8,0.3,1,0.5c0.2,0.2,0.3,0.3,0.4,0.6C304.9,205.6,304.9,205.8,304.9,206.1z"/>
		</g>
	</g>
</g>
</svg>
