<?xml version="1.0" encoding="utf-8"?>
<!-- Generator: Adobe Illustrator 22.0.1, SVG Export Plug-In . SVG Version: 6.00 Build 0)  -->
<svg version="1.1" id="圖層_1" xmlns="http://www.w3.org/2000/svg" xmlns:xlink="http://www.w3.org/1999/xlink" x="0px" y="0px"
	 viewBox="0 0 1024 768" style="enable-background:new 0 0 1024 768;" xml:space="preserve">
<style type="text/css">
	.st0{fill:#282826;}
	.st1{fill:#C52525;}
	.st2{opacity:0.25;fill:#FFFFFF;}
	.st3{fill:#F7D66D;}
</style>
<g>
	<g>
		<path class="st0" d="M489.2,408.1c0,1.5,0,4.2,2.4,4.2c1.8,0,2.5-1.5,2.5-2.6c0-4.9-10.1-6-10.1-14c0-4.1,2.5-7.4,7.2-7.4
			c5,0,7,3.4,7.1,8.3h-5c0-1.5,0-4.1-2.2-4.1c-1.3,0-2.1,1-2.1,2.5c0,4.6,10.1,6.2,10.1,14.1c0,4.2-2.7,7.5-7.7,7.5
			c-6,0-7.2-4.7-7.2-8.4H489.2z"/>
		<path class="st0" d="M501.3,388.8h12.6v4.2h-7.1v7h5.2v4.4h-5.2v7.4h7.4v4.2h-12.9V388.8z"/>
		<path class="st0" d="M525.8,398.6c0-4.5-0.6-6.2-2-6.2c-1.2,0-2.3,0.7-2.3,9.9c0,8.9,0.6,9.9,2.3,9.9c1.8,0,2.3-2.5,2.4-6.5
			l4.7,0.2c0,4.7-0.8,10.5-7.3,10.5c-6,0-8-5.2-8-14.2c0-10.4,3.5-14.2,8-14.2c6.4,0,7.2,5.3,7.2,10.2L525.8,398.6z"/>
		<path class="st0" d="M533.7,388.8h5.6v21.1c0,1.2,0.3,2.5,1.9,2.5c1.5,0,2.1-1.2,2.1-2.5v-21.1h4.7v20.4c0,5.4-2.7,7.3-7.1,7.3
			c-4.3,0-7.2-2-7.2-7.3V388.8z"/>
		<path class="st0" d="M551.4,388.8h6.3c5.3,0,8.9,2,8.9,7.7c0,2.3-0.8,5.4-3.3,6.7l3.3,12.9H561l-2.6-11.7H557V416h-5.6V388.8z
			 M557,400.3h1.1c2.1,0,2.8-1.8,2.8-3.8c0-2.9-1.2-3.8-3.1-3.8H557V400.3z"/>
		<path class="st0" d="M568.7,388.8h5.6V416h-5.6V388.8z"/>
		<path class="st0" d="M580.3,393h-4.8v-4.2h15.2v4.2h-4.8v23h-5.6V393z"/>
		<path class="st0" d="M591.8,388.8h5.6V416h-5.6V388.8z"/>
		<path class="st0" d="M600.8,388.8h12.6v4.2h-7.1v7h5.2v4.4h-5.2v7.4h7.4v4.2h-12.9V388.8z"/>
		<path class="st0" d="M619.8,408.1c0,1.5,0,4.2,2.4,4.2c1.8,0,2.5-1.5,2.5-2.6c0-4.9-10.1-6-10.1-14c0-4.1,2.5-7.4,7.2-7.4
			c5,0,7,3.4,7.1,8.3h-5c0-1.5,0-4.1-2.2-4.1c-1.3,0-2.1,1-2.1,2.5c0,4.6,10.1,6.2,10.1,14.1c0,4.2-2.7,7.5-7.7,7.5
			c-6,0-7.2-4.7-7.2-8.4H619.8z"/>
	</g>
	<g>
		<g>
			<path class="st1" d="M394.3,349.8h29.5l7.9,17.4h-6.7c0,0-9.9,0-8.4,12.9l-2.4-9.9h-0.6c0,0,0.8,5.9,0.8,7.8s0,40.2,0,40.2h-20.3
				V349.8z"/>
			<path class="st2" d="M420.2,368.9l-25.9-19.1h29.5l7.9,17.4h-6.7C425.1,367.2,422.2,367.2,420.2,368.9"/>
			<path class="st1" d="M473.9,349.8h-29.5l-7.9,17.4H451c0,0,0,3,0,15.9l3-12.9h0.6c0,0-0.8,5.9-0.8,7.8s0,40.2,0,40.2h20.3V349.8z
				"/>
			<path class="st2" d="M473.9,349.8h-29.5l-7.9,17.4H451c0,0,0,3,0,15.9l3-12.9h0.6c0,0-0.8,5.9-0.8,7.8s0,15.6,0,15.6l20.3,15
				V349.8z"/>
			<path class="st1" d="M429.9,385.5h13.9c0,0,5,0.1,6.2,1.4l0.8-3.4h-12v-3.8h-8.9V385.5z"/>
			<path class="st2" d="M440,383.5h10.8l-0.8,3.4c-1.3-1.3-6.2-1.4-6.2-1.4h-1.1L440,383.5z"/>
			<polygon class="st2" points="438.8,382.6 438.8,379.7 434.9,379.7 			"/>
			<polygon class="st1" points="423.7,409 425.9,418.2 442.4,418.2 444.9,409 			"/>
		</g>
		<path class="st3" d="M444.5,386.5h-15.7v-8.2h11v4h10.1v-4v-8.9v-1h-21.1h-2.7h-1c-3.9,0-7.1,3.2-7.1,7.1v18v4v3.8
			c0,3.8,3.1,6.9,6.9,6.9h19.6c3.8,0,6.9-3.1,6.9-6.9v-7.8C451.4,389.6,448.3,386.5,444.5,386.5z M436.5,405.6h-3.8l1.9-6.8l0.8-2.9
			c-1.1-0.4-2-1.5-2-2.8c0-1.7,1.4-3,3-3c1.7,0,3,1.4,3,3c0,1.3-0.8,2.4-2,2.8l0.8,2.9l1.9,6.8H436.5z"/>
	</g>
</g>
</svg>
