<?xml version="1.0" encoding="utf-8"?>
<!-- Generator: Adobe Illustrator 23.0.1, SVG Export Plug-In . SVG Version: 6.00 Build 0)  -->
<svg version="1.1" id="圖層_1" xmlns="http://www.w3.org/2000/svg" xmlns:xlink="http://www.w3.org/1999/xlink" x="0px" y="0px"
	 viewBox="0 0 1024 768" style="enable-background:new 0 0 1024 768;" xml:space="preserve">
<style type="text/css">
	.st0{fill:#C8C8C8;}
	.st1{fill:#141E4B;}
	.st2{fill:#FFFFFF;}
	.st3{fill:#C80000;}
</style>
<g>
	<circle class="st0" cx="512" cy="384" r="89.8"/>
	<circle class="st1" cx="511.3" cy="383.7" r="83.9"/>
	<g>
		<g>
			<path class="st2" d="M537.4,327.9l3,1.5l-3,1.5c-1.5,0.7-2.7,2.3-3.2,4.2l-1.1,4.1l-1.1-4.1c-0.5-2-1.7-3.5-3.2-4.2l-3-1.5l3-1.5
				c1.3-0.6,2.7-2.5,3.2-4.2l1.1-4.1l1.1,4.1C534.7,325.7,535.9,327.2,537.4,327.9z"/>
		</g>
		<g>
			<path class="st2" d="M511.9,313l1.3,0.6l-1.3,0.6c-0.6,0.3-1.1,1-1.3,1.8l-0.4,1.7l-0.4-1.7c-0.2-0.8-0.7-1.5-1.3-1.8l-1.3-0.6
				l1.3-0.6c0.5-0.2,1.1-1,1.3-1.8l0.4-1.7l0.4,1.7C510.8,312.1,511.3,312.7,511.9,313z"/>
		</g>
		<g>
			<path class="st2" d="M550.6,336.1l1.3,0.6l-1.3,0.6c-0.6,0.3-1.1,1-1.3,1.8l-0.4,1.7l-0.4-1.7c-0.2-0.8-0.7-1.5-1.3-1.8l-1.3-0.6
				l1.3-0.6c0.5-0.2,1.1-1,1.3-1.8l0.4-1.7l0.4,1.7C549.5,335.1,550,335.8,550.6,336.1z"/>
		</g>
		<g>
			<path class="st2" d="M493.2,344.1l1.3,0.6l-1.3,0.6c-0.6,0.3-1.1,1-1.3,1.8l-0.4,1.7L491,347c-0.2-0.8-0.7-1.5-1.3-1.8l-1.3-0.6
				l1.3-0.6c0.5-0.2,1.1-1,1.3-1.8l0.4-1.7l0.4,1.7C492.1,343.2,492.6,343.8,493.2,344.1z"/>
		</g>
		<g>
			<path class="st2" d="M504.7,421.2l2.5,1.2l-2.5,1.2c-1.2,0.6-2.2,1.8-2.6,3.5l-0.9,3.4l-0.9-3.4c-0.4-1.6-1.4-2.9-2.6-3.5
				l-2.5-1.2l2.5-1.2c1-0.5,2.3-2.1,2.6-3.5l0.9-3.4l0.9,3.4C502.5,419.4,503.5,420.7,504.7,421.2z"/>
		</g>
		<g>
			<path class="st2" d="M518.4,412l0.8,0.4l-0.8,0.4c-0.4,0.2-0.7,0.6-0.9,1.2l-0.3,1.1l-0.3-1.1c-0.1-0.5-0.5-1-0.9-1.2l-0.8-0.4
				l0.8-0.4c0.3-0.1,0.7-0.7,0.9-1.2l0.3-1.1l0.3,1.1C517.6,411.4,517.9,411.8,518.4,412z"/>
		</g>
		<g>
			<path class="st2" d="M456.9,428.6l1.3,0.6l-1.3,0.6c-0.6,0.3-1.2,1-1.4,1.8l-0.5,1.8l-0.5-1.8c-0.2-0.8-0.8-1.5-1.4-1.8l-1.3-0.6
				l1.3-0.6c0.5-0.2,1.2-1.1,1.4-1.8l0.5-1.8l0.5,1.8C455.7,427.6,456.3,428.3,456.9,428.6z"/>
		</g>
		<g>
			<path class="st2" d="M493,454.8l0.8,0.4l-0.8,0.4c-0.4,0.2-0.7,0.6-0.9,1.2l-0.3,1.1l-0.3-1.1c-0.1-0.5-0.5-1-0.9-1.2l-0.8-0.4
				l0.8-0.4c0.3-0.1,0.7-0.7,0.9-1.2l0.3-1.1l0.3,1.1C492.3,454.2,492.6,454.6,493,454.8z"/>
		</g>
		<g>
			<path class="st2" d="M524.7,452.9l0.8,0.4l-0.8,0.4c-0.4,0.2-0.7,0.6-0.9,1.2l-0.3,1.1l-0.3-1.1c-0.1-0.5-0.5-1-0.9-1.2l-0.8-0.4
				l0.8-0.4c0.3-0.1,0.7-0.7,0.9-1.2l0.3-1.1l0.3,1.1C523.9,452.2,524.3,452.7,524.7,452.9z"/>
		</g>
		<g>
			<path class="st2" d="M568.1,423.8l0.8,0.4l-0.8,0.4c-0.4,0.2-0.7,0.6-0.9,1.2l-0.3,1.1l-0.3-1.1c-0.1-0.5-0.5-1-0.9-1.2l-0.8-0.4
				l0.8-0.4c0.3-0.1,0.7-0.7,0.9-1.2l0.3-1.1l0.3,1.1C567.4,423.2,567.8,423.6,568.1,423.8z"/>
		</g>
	</g>
	<g>
		<path class="st3" d="M565.2,385.7c0,0-1.6,27.9-9.5,40.2l-5.9-4.2c0,0-19.2,27.9-44.5,27.9C505.3,449.5,544.2,443.6,565.2,385.7z"
			/>
		<path class="st3" d="M546.5,310.4c0,0-78.6,14.1-83.1,90c-0.2,2.9-5.4,41.7,40.7,49.2c0,0-48.8,0-48.8-49.5
			S513.2,311.9,546.5,310.4z"/>
	</g>
	<g>
		<g>
			<path class="st1" d="M451.5,404.6h-2.3l-0.8-0.4l-2-2.6v0.6l1.1,1.1v0.3h-1.1v0.9h-3.5l-1.1-1.1v-0.3l0.9-0.9V395l-0.9-0.9v-0.3
				l1.1-1.1h4.3c3.2,0,4.4,1.8,4.4,3.4c0,1.2-0.7,2.6-2.4,3.2l2.2,2.8h0.2l1.1,1.1v0.3L451.5,404.6z M446.4,395.2v2.1
				c1.3-0.1,1.3-0.7,1.3-1.1c0-0.9-0.6-1-1.1-1H446.4z"/>
			<polygon class="st1" points="463.2,404.6 460,404.6 458.9,403.6 458.9,403.2 459.7,402.5 459.1,400.8 457.5,400.8 457,402.3 
				457.9,403.2 457.9,403.6 456.9,404.6 454.2,404.6 453.2,403.6 453.2,403.2 454.2,402.2 454.3,402.2 457.5,393.5 458.5,392.8 
				459.4,392.8 460.4,393.5 463.5,402.5 464.2,403.2 464.2,403.6 			"/>
			<path class="st1" d="M474.1,404.6h-7l-1.1-1.1v-0.3l0.9-0.9V395l-0.9-0.9V394l1.1-1.1h4l1.1,1.1v0.3l-1.1,1.1h-0.4v6.9h1.1
				c0.1,0,0.2,0,0.2,0c0.2-0.2,0.5-1.2,0.9-2.7l1-0.8h0.3l1.1,1.1v3.8L474.1,404.6z"/>
			<path class="st1" d="M482.5,404.6h-4l-1.1-1.1v-0.3l0.9-0.9V395l-0.9-0.9V394l1.1-1.1h4.2c3.5,0,4.7,1.8,4.7,3.5
				s-1.2,3.5-4.6,3.5h-0.7v2.3h0.3l1.1,1.1v0.3L482.5,404.6z M482.2,397.5h0.3c1.1,0,1.2-0.1,1.2-1.1s-0.4-1.2-1.1-1.2h-0.4V397.5z"
				/>
			<path class="st1" d="M499.2,404.6h-3.4l-1-1l-1,1h-3.4l-1.1-1.1v-0.3l0.9-0.9V395l-0.9-0.9V394l1.1-1.1h3.4l1,1l1-1h3.4l1.1,1.1
				v0.2l-0.9,0.9v7.4l0.9,0.9v0.3L499.2,404.6z M493.9,402.3l0.9,0.9l0.9-0.9v-2.6H494L493.9,402.3L493.9,402.3z M493.9,397.3h1.7
				v-2.1l-0.9-0.9l-0.9,0.9L493.9,397.3L493.9,397.3z"/>
		</g>
		<g>
			<path class="st1" d="M519.6,404.6h-7l-1.1-1.1v-0.3l0.9-0.9V395l-0.9-0.9V394l1.1-1.1h4l1.1,1.1v0.3l-1.1,1.1H516v6.9h1.1
				c0.1,0,0.2,0,0.2,0c0.2-0.2,0.5-1.2,0.9-2.7l1-0.8h0.3l1.1,1.1v3.8L519.6,404.6z"/>
			<polygon class="st1" points="532.1,404.6 528.9,404.6 527.8,403.6 527.8,403.2 528.6,402.5 528,400.8 526.4,400.8 525.9,402.3 
				526.8,403.2 526.8,403.6 525.8,404.6 523,404.6 521.9,403.6 521.9,403.2 523,402.2 523.1,402.2 526.3,393.5 527.3,392.8 
				528.3,392.8 529.3,393.5 532.4,402.5 533.1,403.2 533.1,403.6 			"/>
			<path class="st1" d="M540,404.9c-3.9,0-4.5-2.5-4.5-3.9v-5.8l-0.9-0.9V394l1.1-1.1h3.5v0.9h0.9l1.1-1.1h2.6l1.1,1.1v0.3L544,395
				v6.1C543.9,403.4,542.3,404.9,540,404.9z M539.2,395.3v5.9c0,1.2,0.6,1.2,0.9,1.2c0.9,0,1.3-0.4,1.3-1.3v-5.8h-0.2l-1-1
				L539.2,395.3z"/>
			<path class="st1" d="M556.5,404.6h-2.3l-0.8-0.4l-2-2.6v0.6l1.1,1.1v0.3h-1.1v0.9h-3.5l-1.1-1.1v-0.3l0.9-0.9V395l-0.9-0.9v-0.3
				l1.1-1.1h4.3c3.2,0,4.4,1.8,4.4,3.4c0,1.2-0.7,2.6-2.4,3.2l2.2,2.8h0.2l1.1,1.1v0.3L556.5,404.6z M551.3,395.2v2.1
				c1.3-0.1,1.3-0.7,1.3-1.1c0-0.9-0.6-1-1.1-1H551.3z"/>
			<path class="st1" d="M567.3,404.6h-7.6l-1.1-1.1v-0.3l0.9-0.9V395l-0.9-0.9V394l1.1-1.1h7.4l1.1,1.1v3.1l-1.1,1.1h-0.3l-0.7-0.5
				v2l0.9-0.6h0.3l1.1,1.1v3.5L567.3,404.6z M563.3,402.2h1.5c0.2,0,0.3,0,0.3,0c0.1-0.1,0.3-0.4,0.4-0.8l-0.4,0.4h-0.3l-1-0.8
				c-0.2-0.7-0.3-1-0.3-1.1l0,0h-0.1v2.3H563.3z M563.4,399.8L563.4,399.8L563.4,399.8z M563.3,397.4L563.3,397.4L563.3,397.4
				c0.2-0.1,0.3-0.4,0.4-1.1l1-0.8h0.3l0.1,0.1c0-0.1-0.1-0.2-0.1-0.3l0,0h-1.8v2.1H563.3z"/>
			<polygon class="st1" points="579.3,404.6 578.8,404.6 577.9,404.1 574.1,398.2 574.1,402.2 574.4,402.2 575.4,403.2 575.4,403.6 
				574.4,404.6 571.7,404.6 570.7,403.6 570.7,403.2 571.6,402.3 571.6,395.1 570.7,394.2 570.7,394 571.7,392.9 574.6,392.9 
				575.5,393.4 577.8,397.2 577.8,395.2 577.7,395.2 576.6,394.2 576.6,394 577.7,392.9 580.3,392.9 581.3,394 581.3,394.2 
				580.3,395.1 580.3,403.6 			"/>
		</g>
	</g>
	<g>
		<g>
			<path class="st2" d="M445.3,394.2h1.3c1.6,0,2.1,1.1,2.1,2c0,1.4-0.9,2.1-2.6,2.1h-0.9L445.3,394.2L445.3,394.2z M446.4,403.6
				v-0.3h-1.1v-4.6h0.1l3.7,4.9h2.4v-0.3h-0.7l-3.5-4.6c2.1-0.1,3.2-1.1,3.2-2.5c0-1.2-0.9-2.4-3.3-2.4h-4.3v0.3h0.9v9h-0.9v0.3h3.5
				L446.4,403.6L446.4,403.6z"/>
			<path class="st2" d="M458.4,395.2L458.4,395.2l1.4,4.1h-2.9L458.4,395.2z M456.9,403.6v-0.3h-1.4l1.3-3.5h3.1l1.2,3.5H460v0.3
				h3.2v-0.3h-0.5l-3.2-9.4h-1l-3.4,9.4h-0.9v0.3H456.9z"/>
			<path class="st2" d="M469.5,403.2h2.1c1,0,1.3-0.2,2.1-3.5h0.3v3.8h-7v-0.3h0.9v-9H467V394h4v0.3h-1.5V403.2z"/>
			<path class="st2" d="M481.1,394.2h1.5c1.5,0,2.1,0.9,2.1,2.2c0,1.7-0.7,2.1-2.2,2.1h-1.4V394.2z M482.5,403.6v-0.3h-1.4v-4.4h1.7
				c2.4,0,3.5-1,3.5-2.5s-1.3-2.5-3.6-2.5h-4.2v0.3h0.9v9h-0.9v0.3h4V403.6z"/>
			<polygon class="st2" points="492.9,398.7 492.9,403.2 493.8,403.2 493.8,403.6 490.4,403.6 490.4,403.2 491.3,403.2 491.3,394.2 
				490.4,394.2 490.4,394 493.8,394 493.8,394.2 492.9,394.2 492.9,398.3 496.7,398.3 496.7,394.2 495.8,394.2 495.8,394 499.2,394 
				499.2,394.2 498.3,394.2 498.3,403.2 499.2,403.2 499.2,403.6 495.8,403.6 495.8,403.2 496.7,403.2 496.7,398.7 			"/>
		</g>
		<g>
			<path class="st2" d="M515,403.2h2.1c1,0,1.3-0.2,2.1-3.5h0.3v3.8h-7v-0.3h0.9v-9h-0.9V394h4v0.3H515V403.2z"/>
			<path class="st2" d="M527.2,395.2L527.2,395.2l1.4,4.1h-2.9L527.2,395.2z M525.8,403.6v-0.3h-1.4l1.3-3.5h3.1l1.2,3.5h-1.1v0.3
				h3.2v-0.3h-0.5l-3.2-9.4h-1.1l-3.4,9.4H523v0.3H525.8z"/>
			<path class="st2" d="M539.2,394v0.3h-1.1v6.9c0,1.7,1,2.2,1.9,2.2c1.4,0,2.4-0.9,2.4-2.4v-6.8h-1.3V394h2.6v0.3h-0.9v6.9
				c0,1.6-1.2,2.7-2.9,2.7c-2.4,0-3.4-1-3.4-2.9v-6.6h-0.9v-0.3h3.5V394H539.2z"/>
			<path class="st2" d="M550.2,394.2h1.3c1.6,0,2.1,1.1,2.1,2c0,1.4-0.9,2.1-2.6,2.1h-0.9v-4.1H550.2z M551.4,403.6v-0.3h-1.1v-4.6
				h0.1l3.7,4.9h2.3v-0.3h-0.7l-3.5-4.6c2.1-0.1,3.2-1.1,3.2-2.5c0-1.2-0.9-2.4-3.3-2.4h-4.3v0.3h0.9v9h-0.9v0.3h3.5L551.4,403.6
				L551.4,403.6z"/>
			<path class="st2" d="M559.7,403.6v-0.3h0.9v-9h-0.9V394h7.4v3.1h-0.3c-0.7-2.6-1-2.8-1.7-2.8h-2.9v4.2h1.2c0.7,0,1.1-0.4,1.4-1.9
				h0.3v4.2h-0.3c-0.3-1.5-0.6-1.9-1.4-1.9h-1.2v4.5h2.6c1.1,0,1.4-0.4,2.2-3.2h0.3v3.5L559.7,403.6L559.7,403.6z"/>
			<polygon class="st2" points="573.1,394.5 573.1,394.5 573.1,403.2 574.4,403.2 574.4,403.6 571.7,403.6 571.7,403.2 572.7,403.2 
				572.7,394.2 571.7,394.2 571.7,394 574.6,394 578.9,400.9 578.9,400.9 578.9,394.2 577.7,394.2 577.7,394 580.3,394 580.3,394.2 
				579.3,394.2 579.3,403.6 578.8,403.6 			"/>
		</g>
	</g>
	<g>
		<path class="st1" d="M458.9,391.2H441l2-3.1c0.1-0.1,0.1-0.2,0.1-0.3v-17.2c0-0.2-0.1-0.4-0.2-0.6l-2-3.1h30.9
			c1.9,0,5.4,1.2,5.4,5.1v7.7v0.1c-0.3,1.2-1.8,3.6-5.4,3.6h-15v3.9c0,0.2,0,0.4,0.1,0.5L458.9,391.2z M444.9,389.1h10.4l-0.1-0.2
			c-0.3-0.5-0.4-1-0.4-1.6v-6H472c2.4,0,3.1-1.5,3.3-1.9V372c0-2.9-3.1-3-3.4-3h-27c0.3,0.5,0.4,1,0.4,1.6v17.2
			C445.2,388.2,445.1,388.7,444.9,389.1z M466.4,380.1H454v-9.6h12.4V380.1z M456.2,378h8.1v-5.4h-8.1V378z"/>
		<path class="st1" d="M507.7,391.2h-23.2c-3.6,0-6.5-3-6.5-6.6v-11.1c0-3.7,2.9-6.6,6.5-6.6h23.2c3.6,0,6.5,3,6.5,6.6v11.1
			C514.2,388.2,511.3,391.2,507.7,391.2z M484.5,368.9c-2.4,0-4.4,2-4.4,4.5v11.1c0,2.5,2,4.5,4.4,4.5h23.2c2.4,0,4.4-2,4.4-4.5
			v-11.1c0-2.5-2-4.5-4.4-4.5H484.5z M502.7,388h-13.3v-17.9h13.3V388z M491.6,385.8h9.1v-13.7h-9.1V385.8z"/>
		<path class="st1" d="M545.3,391.3h-30.7l2.4-2.7c0.2-0.2,0.3-0.4,0.3-0.7v-17.5c0-0.3-0.1-0.5-0.3-0.7l-2.4-2.7h19.3l-2.3,2.7
			c-0.2,0.2-0.2,0.4-0.2,0.7v15.2H543l4.5-0.8l-1.9,3.1c-0.1,0.2-0.2,0.4-0.2,0.6L545.3,391.3L545.3,391.3z M519,389.1h24.1v-0.8
			c0-0.3,0-0.5,0.1-0.8h-0.3h-13.8v-17.3c0-0.4,0.1-0.9,0.3-1.3H519c0.2,0.4,0.3,0.9,0.3,1.3v17.5
			C519.3,388.3,519.2,388.7,519,389.1z"/>
		<path class="st1" d="M575.8,391.2H565v-5.3h3.7v-13.7h-9.1v13.7h4.8l-2.3,5.3h-9.6c-3.6,0-6.5-3-6.5-6.6v-11.1
			c0-3.7,2.9-6.6,6.5-6.6h23.2c3.6,0,6.5,3,6.5,6.6v11.1C582.3,388.2,579.4,391.2,575.8,391.2z M567.1,389.1h8.6
			c2.4,0,4.4-2,4.4-4.5v-11.1c0-2.5-2-4.5-4.4-4.5h-23.2c-2.4,0-4.4,2-4.4,4.5v11.1c0,2.5,2,4.5,4.4,4.5h8.2l0.5-1.1h-3.7v-17.9
			h13.3V388h-3.7L567.1,389.1L567.1,389.1z"/>
	</g>
	<g>
		<path class="st2" d="M471.8,367.9h-28.9l1,1.5c0.2,0.3,0.3,0.7,0.3,1.2v17.2c0,0.3-0.1,0.6-0.3,0.9l-0.9,1.5h14.1l-1-1.8
			c-0.2-0.3-0.3-0.7-0.3-1.1v-5c0,0,12.5,0,16.1,0s4.3-2.8,4.3-2.8s0-3.6,0-7.6S471.8,367.9,471.8,367.9z M465.4,379.1h-10.3v-7.5
			h10.3V379.1z"/>
		<path class="st2" d="M507.7,367.9h-23.2c-3,0-5.5,2.5-5.5,5.6v11.1c0,3.1,2.5,5.6,5.5,5.6h23.2c3,0,5.5-2.5,5.5-5.6v-11.1
			C513.2,370.4,510.7,367.9,507.7,367.9z M501.7,386.9h-11.2v-15.8h11.2V386.9z"/>
		<path class="st2" d="M530.3,386.5v-16.2c0-0.5,0.2-1,0.5-1.4l0.8-1h-14.7l0.9,1c0.3,0.4,0.5,0.9,0.5,1.4v16.2v1.3
			c0,0.5-0.2,1-0.5,1.4l-0.9,1h13.4h14v-1.9c0-0.4,0.1-0.8,0.3-1.1l0.7-1.1l-2.2,0.4L530.3,386.5L530.3,386.5z"/>
		<path class="st2" d="M575.8,367.9h-23.2c-3,0-5.5,2.5-5.5,5.6v11.1c0,3.1,2.5,5.6,5.5,5.6h8.9l1.4-3.2h-4.2v-15.8h11.2V387h-3.7
			v3.2h9.7c3,0,5.5-2.5,5.5-5.6v-11.1C581.3,370.4,578.8,367.9,575.8,367.9z"/>
	</g>
</g>
</svg>
