<?xml version="1.0" encoding="utf-8"?>
<!-- Generator: Adobe Illustrator 22.0.1, SVG Export Plug-In . SVG Version: 6.00 Build 0)  -->
<svg version="1.1" id="圖層_1" xmlns="http://www.w3.org/2000/svg" xmlns:xlink="http://www.w3.org/1999/xlink" x="0px" y="0px"
	 viewBox="0 0 1024 768" style="enable-background:new 0 0 1024 768;" xml:space="preserve">
<style type="text/css">
	.st0{fill:#00B5FF;}
</style>
<g>
	<path class="st0" d="M428.8,354.3h-9.4c0,0-3.7,24.9-29.2,51.3l4.9,8.3c0,0,11.5-4,28.9-4s29.1,3.9,29.1,3.9l5.2-8.6
		C458.3,405.3,437.4,387.8,428.8,354.3z M428.8,398.1l-4.6,7.7l-4.6-7.7l-20.4,7.1l16.6-14.1l-4.3-7.7h9.2l3.4-21.2l3.4,21.2h9.1
		l-4.3,7.7l16.6,14.1L428.8,398.1z"/>
	<g>
		<path d="M470.6,378.5v-1.4c4.3-1.8,6.9-6.2,7.4-10.6h1.9v10.1h8.1v1.9h-8v17.4c0,2.6-0.3,6.4,3.3,6.4c2.3,0,3.7-1.5,5.1-2.9l1,1.1
			c-2.2,2.5-5.1,4.8-8.6,4.8c-5.1,0-5.8-4.2-5.8-8.3v-18.7h-4.2V378.5z"/>
		<path d="M498.8,396.9c0,5.4,0,5.7,3.9,6.2v1.7H490v-1.7c3.8-0.4,3.8-0.8,3.8-6.2v-12.4c-0.2-3-0.2-4.2-3.8-4.2v-1.4l8.8-3.4v6.8
			c2.2-2.7,5.6-6.8,9.4-6.8c1.9,0,3.6,1.4,3.6,3.3c0,1.8-1.2,3.2-3.1,3.2c-2,0-2.8-1.5-4.6-1.5c-2,0-4.3,2.6-5.3,4.3v12H498.8z"/>
		<path d="M537,400.6c-2.4,2.4-5.5,4.7-9.1,4.7c-2.4,0-4.8-0.8-6.2-3c-1.5-2.3-1.5-5-1.5-7.7v-10.2c-0.2-3-0.2-4.2-3.8-4.2v-1.4
			l8.8-3.4v20.7c0,3,1.2,6.1,4.7,6.1c2.8,0,5.1-2.3,6.9-4.1v-13.8c-0.2-3-0.2-4.2-3.8-4.2v-1.4l8.8-3.4v21.3c0,5.4,0,5.7,4,6.2v1.7
			h-9L537,400.6L537,400.6z"/>
		<path d="M571.7,384.9l-1.4,0.7c-2.8-3.7-6.3-7.8-11-7.8c-2.3,0-4.6,1.6-4.6,3.9c0,7,18.1,4.4,18.1,14.9c0,5-4.8,8.7-9.4,8.7
			c-1.5,0-2.5-0.4-3.8-0.8c-0.7-0.2-1.4-0.5-2.1-0.5c-1.2,0-2.4,0.5-3.3,1.4l-3.6-9.8l1.3-0.6c2.2,3.7,7.6,8.5,11.9,8.5
			c2.6,0,5.1-2,5.1-4.7c0-7.4-17.9-4.2-17.9-14.6c0-4.9,4.5-8.2,9.1-8.2c2.1,0,4.1,0.9,5.7,0.9c1.1,0,1.9-0.5,2.6-1.4L571.7,384.9z"
			/>
		<path d="M598.5,384.9l-1.4,0.7c-2.8-3.7-6.3-7.8-11-7.8c-2.3,0-4.6,1.6-4.6,3.9c0,7,18.1,4.4,18.1,14.9c0,5-4.8,8.7-9.4,8.7
			c-1.5,0-2.5-0.4-3.8-0.8c-0.7-0.2-1.4-0.5-2.1-0.5c-1.2,0-2.4,0.5-3.3,1.4l-3.6-9.8l1.3-0.6c2.2,3.7,7.6,8.5,11.9,8.5
			c2.6,0,5.1-2,5.1-4.7c0-7.4-17.9-4.2-17.9-14.6c0-4.9,4.5-8.2,9.1-8.2c2.1,0,4.1,0.9,5.7,0.9c1.1,0,1.9-0.5,2.6-1.4L598.5,384.9z"
			/>
		<path d="M602.2,378.5v-1.4c4.3-1.8,6.9-6.2,7.4-10.6h1.9v10.1h8.1v1.9h-8v17.4c0,2.6-0.3,6.4,3.3,6.4c2.3,0,3.7-1.5,5.1-2.9l1,1.1
			c-2.2,2.5-5.1,4.8-8.6,4.8c-5.1,0-5.9-4.2-5.9-8.3v-18.7h-4.2V378.5z"/>
		<path d="M630.7,396.9c0,5.4,0,5.7,3.9,6.2v1.7h-12.9v-1.7c3.9-0.5,3.9-0.8,3.9-6.2v-12.3c-0.2-3-0.2-4.2-3.8-4.2v-1.4l8.8-3.4
			V396.9z M627.4,369.6c-2.1,0-3.9-1.7-3.9-3.8c0-2.1,1.7-3.9,3.8-3.9s3.9,1.7,3.9,3.9C631.2,367.8,629.5,369.6,627.4,369.6z"/>
	</g>
</g>
</svg>
